<svg width="30" height="30" viewBox="0 0 30 30" fill="none" xmlns="http://www.w3.org/2000/svg">
<rect width="30" height="30" rx="4" fill="#D1152E"/>
<path d="M9.33663 18.5513H20.6627C20.7789 18.4624 20.8538 18.3227 20.8538 18.1658V17.3159C20.8538 17.0602 20.6487 16.8311 20.369 16.8311H19.1493L19.1486 16.8318C18.8747 17.1488 18.464 17.3115 18.0563 17.3115C17.6483 17.3115 17.2377 17.1488 16.9635 16.8318C16.9633 16.8315 16.963 16.8313 16.9628 16.8311H15.3892C15.3894 16.8313 15.3894 16.8316 15.3892 16.8318C15.2936 17.6304 14.6337 18.0472 13.9816 18.0472C13.3286 18.0472 12.6685 17.6304 12.5727 16.8318C12.5724 16.8315 12.5724 16.8313 12.5727 16.8311C9.55797 16.8311 9.60541 16.8316 9.60541 16.8316C9.34949 16.8447 9.14551 17.0567 9.14551 17.3159V18.1658C9.14548 18.3227 9.22047 18.4624 9.33663 18.5513Z" fill="white"/>
<path d="M9.63031 16.0285H12.5606V16.0278V15.2728C12.3673 15.359 12.1553 15.4027 11.9441 15.4027C11.269 15.4027 10.6394 14.9691 10.5378 14.209H9.63031C9.36287 14.209 9.14551 14.4264 9.14551 14.6935V15.5437C9.14548 15.8007 9.35226 16.0285 9.63031 16.0285Z" fill="white"/>
<path d="M16.6357 14.2607V16.0289H15.4014V14.2607C15.5904 14.3426 15.8005 14.386 16.0184 14.386C16.2299 14.386 16.4422 14.344 16.6357 14.2607Z" fill="white"/>
<path d="M20.8536 15.5437V14.6935C20.8536 14.4264 20.6363 14.209 20.3688 14.209H19.476V15.8928C19.476 15.9389 19.4742 15.9838 19.471 16.0278C19.471 16.0281 19.471 16.0283 19.4707 16.0285H20.3688C20.637 16.0286 20.8536 15.8103 20.8536 15.5437Z" fill="white"/>
<path d="M9.63031 13.406H10.5231V11.5864H9.63031C9.36287 11.5864 9.14551 11.8038 9.14551 12.0712V12.9212C9.14548 13.1884 9.36287 13.406 9.63031 13.406Z" fill="white"/>
<path d="M20.8541 12.9212V12.0712C20.8541 11.8038 20.6368 11.5864 20.3693 11.5864H19.4766V13.406H20.3693C20.6367 13.406 20.8541 13.1883 20.8541 12.9212Z" fill="white"/>
<path d="M8.66827 19.3545C8.48936 19.3545 8.36081 19.5266 8.41156 19.6982L8.77787 20.9366C8.83839 21.1412 9.02951 21.2839 9.24262 21.2839H20.7582C20.9713 21.2839 21.1624 21.1412 21.223 20.9366L21.5893 19.6982C21.64 19.5266 21.5114 19.3545 21.3325 19.3545H8.66827Z" fill="white"/>
<path d="M17.87 10.6924C18.3136 10.6924 18.6731 11.0519 18.6731 11.4955V15.8931C18.6731 16.3043 18.3889 16.5085 18.0563 16.5085C17.708 16.5085 17.4387 16.2893 17.4387 15.8931V12.2871C17.4387 12.0708 17.2723 11.8847 17.0562 11.8747C16.8256 11.8641 16.6356 12.0479 16.6356 12.2759V13.0179C16.6356 13.3976 16.3529 13.5828 16.0183 13.5828C15.6818 13.5828 15.4012 13.3949 15.4012 13.0179C15.4012 12.796 15.2213 12.6164 14.9996 12.6164C14.778 12.6164 14.5981 12.796 14.5981 13.0179V16.6287C14.5981 17.0319 14.3261 17.2442 13.9816 17.2442C13.6343 17.2442 13.3637 17.0303 13.3637 16.6287V12.3337C13.3637 12.1058 13.1737 11.9219 12.9431 11.9326C12.727 11.9425 12.5606 12.1286 12.5606 12.345V13.9846C12.5606 14.3924 12.283 14.6001 11.944 14.5998C11.6059 14.5998 11.3262 14.3928 11.3262 13.9843V11.4955C11.3262 11.0519 11.6857 10.6924 12.1292 10.6924H17.87Z" fill="white"/>
<path d="M16.1312 9.8893H13.868C13.8437 9.25691 14.3513 8.71631 14.9996 8.71631C15.6432 8.71631 16.1557 9.2522 16.1312 9.8893Z" fill="white"/>
</svg>
