<svg width="30" height="30" viewBox="0 0 30 30" fill="none" xmlns="http://www.w3.org/2000/svg">
<rect width="30" height="30" rx="4" fill="#D1152E"/>
<path d="M12.7894 18.4232C12.7893 18.4233 12.7893 18.4232 12.7893 18.4232V18.4232C12.789 18.4234 12.7887 18.4229 12.7887 18.4229V18.423C12.6532 18.3782 11.903 17.7455 10.7139 18.0581L11.7325 21.329C11.7828 21.4905 11.9305 21.6003 12.0975 21.6003H13.1665V21.6002H13.1667C12.9216 19.5376 13.0041 20.2312 12.7894 18.4232Z" fill="white"/>
<path d="M16.8996 15.7364C16.8996 15.7364 16.8999 15.7364 16.8999 15.7362C17.5399 15.3786 18.2311 15.2602 18.919 15.3585C18.6193 13.6612 17.4678 12.5656 16.1572 12.1409C15.5181 12.7425 14.52 12.6767 13.9676 12.0542C12.5325 12.3982 11.2193 13.5287 10.8965 15.3585C11.5726 15.2615 12.2667 15.373 12.9161 15.7362C14.1798 15.0706 15.6663 15.084 16.8996 15.7364ZM16.1191 13.1989L16.2608 13.0556C16.4101 12.9039 16.6525 12.9039 16.8021 13.0556C16.9517 13.2072 16.9517 13.4529 16.8021 13.6045L16.6605 13.7482C16.5105 13.8998 16.2687 13.8996 16.1191 13.7479C15.9696 13.5965 15.9696 13.3506 16.1191 13.1989ZM14.3019 14.0551L14.3509 13.8582C14.4027 13.6503 14.6107 13.5243 14.8159 13.5768C15.0209 13.6291 15.1452 13.8403 15.0936 14.0481L15.0447 14.2449C14.9925 14.4532 14.7849 14.5789 14.5796 14.5264C14.3746 14.4742 14.2504 14.263 14.3019 14.0551ZM12.9885 13.6762L12.8469 13.5325C12.6976 13.3812 12.6976 13.1353 12.8469 12.9836C12.9964 12.8319 13.2389 12.8319 13.3882 12.9836L13.5299 13.1272C13.6792 13.2787 13.6794 13.5246 13.5299 13.6762C13.3812 13.8276 13.1376 13.8278 12.9885 13.6762Z" fill="white"/>
<path d="M14.5956 11.5918C14.8813 11.8411 15.3039 11.8463 15.5957 11.6076C15.9594 11.3091 15.9844 10.7602 15.658 10.4292C15.3519 10.1193 14.8561 10.1207 14.5519 10.4292C14.2318 10.7537 14.2491 11.2898 14.5956 11.5918Z" fill="white"/>
<path d="M19.5547 16.6044C19.5955 16.4735 19.5286 16.3324 19.4018 16.2843C18.2247 15.8378 17.4167 16.3541 17.2673 16.3928L17.2665 16.393C17.2665 16.393 17.2678 16.3809 17.1367 17.4872C17.137 17.4869 17.1372 17.4866 17.1375 17.4866C17.8268 17.1712 18.5831 17.1121 19.333 17.3166C19.3391 17.2966 19.4704 16.8754 19.5547 16.6044Z" fill="white"/>
<path d="M16.4742 10.2579C16.9244 9.92221 17.2804 9.45943 17.4892 8.93327C17.5683 8.73449 17.4731 8.50828 17.2771 8.42804C17.0808 8.34807 16.858 8.44435 16.7789 8.64339C16.6132 9.06113 16.3228 9.42555 15.9561 9.67865C16.1719 9.8237 16.3507 10.0204 16.4742 10.2579Z" fill="white"/>
<path d="M12.6785 17.4864C12.6788 17.4864 12.6788 17.4864 12.679 17.4866L12.679 17.4865C12.6791 17.4865 12.679 17.4865 12.6791 17.4866C12.5393 16.3097 12.5524 16.421 12.5495 16.3933C12.2801 16.3023 11.5318 15.8592 10.4139 16.2847C10.2876 16.3328 10.2213 16.4737 10.2619 16.6042C10.3052 16.7432 10.3743 16.965 10.4838 17.3169C11.2332 17.1124 11.9891 17.1709 12.6785 17.4864Z" fill="white"/>
<path d="M16.4952 16.3987C15.528 15.9068 14.3564 15.8732 13.3205 16.3987V16.3987C13.3204 16.3987 13.3204 16.3987 13.3203 16.3988C13.3204 16.399 13.4357 17.375 13.4357 17.375C13.4358 17.3749 13.4358 17.3749 13.4358 17.3749V17.3749C13.436 17.3747 13.4359 17.3748 13.436 17.3747H13.4362C14.2883 17.0465 15.3787 17.0071 16.3787 17.3747C16.3789 17.3747 16.3792 17.375 16.3795 17.375C16.3795 17.3733 16.4953 16.4023 16.4953 16.3988C16.4953 16.3987 16.4953 16.3987 16.4952 16.3987V16.3987Z" fill="white"/>
<path d="M17.0274 18.4231V18.4231C17.0269 18.4231 17.0266 18.4231 17.0264 18.4233L16.6494 21.5998H16.6495V21.5999H17.7192C17.8861 21.5999 18.0339 21.4901 18.0842 21.3286L19.1031 18.0574C17.9152 17.7457 17.1704 18.3756 17.0274 18.4231Z" fill="white"/>
<path d="M16.2853 18.1715H16.2851C16.2848 18.1713 16.2846 18.1713 16.2844 18.1713V18.1711C16.2843 18.1711 16.2843 18.1711 16.2843 18.1711V18.171C16.2841 18.1708 16.2839 18.1709 16.2836 18.1708C15.6678 17.9576 14.756 17.643 13.5309 18.1707V18.1708C13.5309 18.1708 13.5308 18.1708 13.5308 18.1708V18.171C13.5306 18.171 13.5306 18.171 13.5304 18.171V18.1711C13.5303 18.1711 13.5303 18.1711 13.5303 18.1711C13.7939 20.3928 13.7069 19.6597 13.937 21.6001H13.9371V21.6002H15.8784V21.6001H15.8785C15.8795 21.5916 16.2854 18.1716 16.2854 18.1716H16.2853V18.1715Z" fill="white"/>
</svg>
