<svg width="30" height="30" viewBox="0 0 30 30" fill="none" xmlns="http://www.w3.org/2000/svg">
<rect width="30" height="30" rx="4" fill="#D1152E"/>
<path d="M11.6005 11.198C11.4523 11.3483 11.4523 11.592 11.6005 11.7422C11.6745 11.8174 11.7717 11.855 11.8688 11.855C11.9659 11.855 12.063 11.8174 12.1371 11.7422C12.6435 11.2287 12.6434 10.3932 12.1371 9.87975C11.9267 9.66632 11.9267 9.31906 12.1371 9.10566C12.2853 8.95536 12.2853 8.71173 12.1371 8.56146C11.9889 8.41113 11.7487 8.41118 11.6005 8.56146C11.0941 9.07496 11.0941 9.91047 11.6005 10.4239C11.8109 10.6374 11.8109 10.9846 11.6005 11.198Z" fill="white"/>
<path d="M13.6551 11.198C13.5069 11.3483 13.5069 11.5919 13.6551 11.7422C13.7292 11.8174 13.8263 11.8549 13.9235 11.8549C14.0205 11.8549 14.1177 11.8174 14.1918 11.7422C14.6981 11.2287 14.6981 10.3932 14.1918 9.87973C13.9813 9.6663 13.9813 9.31904 14.1918 9.10564C14.34 8.95536 14.34 8.71171 14.1918 8.56144C14.0436 8.41116 13.8033 8.41116 13.6551 8.56144C13.1488 9.07492 13.1488 9.91045 13.6551 10.4239C13.8656 10.6374 13.8656 10.9846 13.6551 11.198Z" fill="white"/>
<path d="M15.7109 11.198C15.5627 11.3483 15.5627 11.5919 15.7109 11.7422C15.785 11.8174 15.882 11.8549 15.9792 11.8549C16.0763 11.8549 16.1734 11.8174 16.2475 11.7422C16.7539 11.2287 16.7539 10.3932 16.2475 9.87973C16.037 9.6663 16.037 9.31904 16.2475 9.10564C16.3957 8.95536 16.3957 8.71171 16.2475 8.56144C16.0993 8.41116 15.8591 8.41116 15.7109 8.56144C15.2045 9.07492 15.2045 9.91045 15.7109 10.4239C15.9213 10.6374 15.9213 10.9846 15.7109 11.198Z" fill="white"/>
<path d="M18.7345 13.3316L19.6637 11.9519V11.9519L19.7516 12.0127C19.9247 12.1326 20.1608 12.0873 20.279 11.9119C20.3972 11.7364 20.3527 11.497 20.1796 11.3771C20.0564 11.2918 19.7443 11.0757 19.3772 10.8214C19.2041 10.7016 18.968 10.7467 18.8498 10.9222C18.7316 11.0977 18.7761 11.3372 18.9492 11.457L19.0371 11.5179L18.1084 12.897C18.3373 12.9903 18.5559 13.1376 18.7345 13.3316Z" fill="white"/>
<path d="M17.6955 14.9222C17.9389 14.8809 18.186 14.8865 18.4223 14.9396C18.6817 13.9257 17.7175 13.1812 16.8379 13.7147C17.2045 14.0561 17.4982 14.4663 17.6955 14.9222Z" fill="white"/>
<path d="M16.9828 15.189C16.5144 14.1516 15.4017 13.4312 14.1201 13.4312C11.514 13.4312 9.32343 15.2921 9.10156 17.6804H16.1052C15.7473 16.7943 16.1149 15.717 16.9828 15.189Z" fill="white"/>
<path d="M21.3056 14.0712C21.2285 13.993 20.6777 13.4344 20.6185 13.3744C20.4703 13.2242 20.2301 13.2242 20.0819 13.3744C19.9337 13.5247 19.9337 13.7684 20.0819 13.9186L20.1571 13.9949L18.9922 15.1763C19.2104 15.3173 19.393 15.5033 19.5285 15.7206L20.6937 14.539L20.769 14.6153C20.9172 14.7656 21.1575 14.7656 21.3057 14.6153C21.4539 14.4651 21.4539 14.2214 21.3056 14.0712Z" fill="white"/>
<path d="M16.9885 17.6804H18.605C19.126 17.213 19.2047 16.4196 18.7537 15.9623C18.7507 15.9593 18.7479 15.9564 18.7449 15.9536C17.7114 14.9315 16.0567 16.6348 16.9885 17.6804Z" fill="white"/>
<path d="M10.829 21.2208C10.8556 21.4105 11.0157 21.5514 11.2046 21.5514H18.4967C18.6856 21.5514 18.8457 21.4105 18.8723 21.2208L18.9562 20.624H10.7451L10.829 21.2208Z" fill="white"/>
<path d="M21.0492 18.4502H8.65337C8.51366 18.4502 8.40039 18.565 8.40039 18.7068V19.3696C8.40039 19.6374 8.61445 19.8545 8.87851 19.8545H20.824C21.0881 19.8545 21.3021 19.6374 21.3021 19.3696V18.7068C21.3021 18.565 21.1889 18.4502 21.0492 18.4502Z" fill="white"/>
</svg>
