<svg width="30" height="30" viewBox="0 0 30 30" fill="none" xmlns="http://www.w3.org/2000/svg">
<rect width="30" height="30" rx="4" fill="#D1152E"/>
<path d="M15.0328 10.0827C15.2924 10.9994 14.7862 11.9146 13.9566 12.2276C12.9811 12.5958 11.8888 12.0443 11.618 11.0226L10.3937 11.3595C10.1814 15.7611 14.2413 19.8178 18.6399 19.6057L19.7393 15.6105C18.6174 15.3072 17.9033 14.1498 18.193 12.9789C18.4839 11.8034 19.6971 11.0656 20.898 11.3999L21.5848 8.90426C21.6668 8.60639 21.393 8.33266 21.0951 8.41462L15.0328 10.0827ZM16.0083 11.5977C16.115 11.4052 16.3574 11.3356 16.5496 11.4421L17.0979 11.7461C17.2904 11.8525 17.36 12.0949 17.2532 12.2874C17.1479 12.4773 16.9076 12.5503 16.7118 12.4428L16.1636 12.139C15.9714 12.0323 15.9018 11.7899 16.0083 11.5977ZM13.0763 14.0209H12.4495C12.2297 14.0209 12.0512 13.8427 12.0512 13.6226C12.0512 13.4028 12.2297 13.2244 12.4495 13.2244H13.0763C13.2962 13.2244 13.4746 13.4028 13.4746 13.6226C13.4746 13.8427 13.2962 14.0209 13.0763 14.0209ZM14.0069 15.1854C14.0069 14.3838 14.6592 13.7317 15.4608 13.7317C16.2621 13.7317 16.9142 14.3838 16.9142 15.1854C16.9142 15.9869 16.2621 16.639 15.4608 16.639C14.6592 16.639 14.0069 15.9869 14.0069 15.1854ZM17.3785 18.2933L16.7519 18.2737C16.5321 18.267 16.3595 18.0833 16.3661 17.8635C16.3731 17.6434 16.5565 17.4705 16.7766 17.4777L17.4032 17.4971C17.6231 17.504 17.7956 17.6877 17.789 17.9076C17.7825 18.1104 17.6225 18.2933 17.3785 18.2933ZM19.8745 10.0405L19.5306 10.5649C19.4103 10.7484 19.1639 10.8006 18.9795 10.6796C18.7955 10.559 18.744 10.3121 18.8645 10.1281L19.2083 9.60402C19.3289 9.42002 19.5758 9.36852 19.7598 9.48905C19.9438 9.60985 19.995 9.85651 19.8745 10.0405Z" fill="white"/>
<path d="M18.7321 20.3986C13.8217 20.6706 9.33037 16.1675 9.6018 11.2683C9.61174 11.0826 9.45119 10.9303 9.26065 10.9669C9.01481 11.0165 9.15507 10.9882 8.68929 11.0821C8.56901 11.1066 8.47768 11.2035 8.46256 11.3235C7.76053 16.8854 13.1199 22.2392 18.6769 21.5378C18.7969 21.5227 18.8938 21.4314 18.9183 21.3111C19.0119 20.847 18.9838 20.9863 19.0335 20.7398C19.0709 20.5537 18.9207 20.3885 18.7321 20.3986Z" fill="white"/>
<path d="M13.6648 11.4862C14.1299 11.3172 14.4155 10.8056 14.2665 10.2939L12.3857 10.8117C12.5257 11.363 13.1187 11.6847 13.6648 11.4862Z" fill="white"/>
<path d="M18.9545 13.2242C18.8066 13.9448 19.244 14.6541 19.9511 14.8428L20.6873 12.1676H20.687C19.9039 11.9483 19.1137 12.4477 18.9545 13.2242Z" fill="white"/>
<path d="M15.4611 14.5283C15.0987 14.5283 14.8037 14.823 14.8037 15.1854C14.8037 15.5478 15.0987 15.8426 15.4611 15.8426C15.8232 15.8426 16.1179 15.5478 16.1179 15.1854C16.1179 14.823 15.8232 14.5283 15.4611 14.5283Z" fill="white"/>
</svg>
