<svg width="30" height="30" viewBox="0 0 30 30" fill="none" xmlns="http://www.w3.org/2000/svg">
<rect width="30" height="30" rx="4" fill="#D1152E"/>
<path d="M10.3999 14.0122H19.6039C19.8538 13.3567 19.6237 12.5967 19.0076 12.1989C18.8785 12.1153 18.8106 11.9634 18.835 11.8112C18.9897 10.8444 18.2064 9.98835 17.2305 10.0579C17.025 10.0722 16.8441 9.92411 16.8179 9.72016C16.7212 8.9675 16.0751 8.3999 15.3155 8.3999C14.4157 8.3999 13.7147 9.17472 13.8081 10.0747C13.8398 10.3779 13.5236 10.5991 13.2488 10.4622C12.2068 9.94257 10.985 10.7505 11.0622 11.9207C11.0708 12.0519 11.0123 12.1787 10.9069 12.2574C10.3091 12.7036 10.172 13.4306 10.3999 14.0122ZM17.3918 12.6793L17.5636 12.5072C17.7153 12.3558 17.9612 12.3555 18.1126 12.5072C18.2642 12.6588 18.2642 12.9047 18.1126 13.0564L17.9407 13.2283C17.7897 13.3793 17.5435 13.3803 17.3915 13.2283C17.2401 13.0766 17.2401 12.831 17.3918 12.6793ZM16.0133 11.2488C16.0133 11.0345 16.1869 10.8605 16.4015 10.8605C16.6158 10.8605 16.7897 11.0345 16.7897 11.2488V11.4921C16.7897 11.7064 16.6158 11.8803 16.4015 11.8803C16.1869 11.8803 16.0133 11.7064 16.0133 11.4921V11.2488ZM12.4596 12.0014C12.611 11.8498 12.8569 11.8498 13.0086 12.0014L13.1807 12.1733C13.3321 12.325 13.3321 12.5709 13.1804 12.7225C13.0298 12.8737 12.7833 12.8743 12.6315 12.7225L12.4596 12.5504C12.3079 12.3987 12.3079 12.1531 12.4596 12.0014Z" fill="white"/>
<path d="M12.7227 20.9336V21.3412C12.7227 21.4842 12.8385 21.6001 12.9814 21.6001H17.0191C17.1621 21.6001 17.2779 21.4842 17.2779 21.3412V20.9336C17.0929 20.9454 12.8964 20.9446 12.7227 20.9336Z" fill="white"/>
<path d="M9.97266 17.1819C9.97266 18.8284 11.3127 20.1643 12.9551 20.1643H17.044C18.6863 20.1643 20.0264 18.8286 20.0264 17.1819V16.3672H9.97266V17.1819Z" fill="white"/>
<path d="M9.97266 15.0479V15.5909H20.0264V15.0479C20.0264 14.9049 19.9105 14.7891 19.7676 14.7891H10.2315C10.0885 14.7891 9.97266 14.9049 9.97266 15.0479Z" fill="white"/>
</svg>
