<svg width="30" height="30" viewBox="0 0 30 30" fill="none" xmlns="http://www.w3.org/2000/svg">
<rect width="30" height="30" rx="4" fill="#D1152E"/>
<path d="M9.79788 21.0387H10.8684C11.0113 21.0387 11.1272 20.9229 11.1272 20.7799V19.8525H9.53906V20.7799C9.53906 20.9229 9.65493 21.0387 9.79788 21.0387Z" fill="white"/>
<path d="M19.1319 21.0387H20.2023C20.3453 21.0387 20.4612 20.9229 20.4612 20.7799V19.8525H18.873V20.7799C18.873 20.9229 18.9889 21.0387 19.1319 21.0387Z" fill="white"/>
<path d="M21.361 17.3457H8.6398C8.5078 17.3457 8.40039 17.4531 8.40039 17.5851V18.8365C8.40039 18.9685 8.5078 19.0759 8.6398 19.0759H21.361C21.493 19.0759 21.6004 18.9685 21.6004 18.8365V17.5851C21.6004 17.4531 21.493 17.3457 21.361 17.3457Z" fill="white"/>
<path d="M9.58783 13.645C9.47006 13.908 9.4082 14.1953 9.4082 14.4922C9.4082 15.6374 10.3397 16.5689 11.485 16.5689H12.417V13.7053C11.4997 13.734 9.92914 13.7206 9.58783 13.645ZM10.2271 14.9529C10.2271 14.7383 10.4011 14.5646 10.6154 14.5646C10.8297 14.5646 11.0036 14.7383 11.0036 14.9529V15.0983C11.0036 15.3129 10.8297 15.4866 10.6154 15.4866C10.4011 15.4866 10.2271 15.3129 10.2271 15.0983V14.9529Z" fill="white"/>
<path d="M18.878 14.4923C18.878 13.7853 18.5307 13.1656 17.9864 12.7866C17.2693 13.0098 16.613 13.1862 15.8691 13.3335V16.5691H16.8017C17.9471 16.5691 18.878 15.643 18.878 14.4923ZM17.3323 13.8077C17.3323 13.5931 17.5062 13.4194 17.7206 13.4194C17.9348 13.4194 18.1088 13.5931 18.1088 13.8077V13.9531C18.1088 14.1677 17.9348 14.3414 17.7206 14.3414C17.5062 14.3414 17.3323 14.1677 17.3323 13.9531V13.8077ZM16.6529 15.3896V15.2442C16.6529 15.0296 16.8268 14.856 17.0411 14.856C17.2554 14.856 17.4294 15.0296 17.4294 15.2442V15.3896C17.4294 15.6042 17.2554 15.7779 17.0411 15.7779C16.8268 15.7779 16.6529 15.6042 16.6529 15.3896Z" fill="white"/>
<path d="M9.94818 12.9112C10.1461 12.9187 10.2871 12.9237 10.4907 12.929C10.4087 12.1933 10.4931 11.4063 10.6739 10.6985C10.4845 10.6843 10.2865 10.6692 10.0789 10.6535C9.47443 10.6095 8.94666 11.0446 8.87147 11.6388C8.7886 12.2916 9.27733 12.8833 9.94818 12.9112Z" fill="white"/>
<path d="M11.2738 12.9428C11.6708 12.9449 12.0503 12.9402 12.4162 12.9283C12.4162 12.7022 12.4162 11.1762 12.4162 10.822C12.1248 10.8037 11.8095 10.7822 11.4622 10.7573C11.2704 11.4456 11.1774 12.2365 11.2738 12.9428Z" fill="white"/>
<path d="M16.9493 12.2822C16.8167 11.783 16.7383 11.257 16.6946 10.7383C16.416 10.7815 16.1487 10.8149 15.8691 10.8408V12.541C16.2269 12.4671 16.5878 12.381 16.9493 12.2822Z" fill="white"/>
<path d="M17.6936 12.0647C18.0516 11.9539 18.4173 11.8326 18.7727 11.7127C18.5181 11.3069 18.4046 10.839 18.4206 10.3989C18.0624 10.4776 17.7485 10.5446 17.4609 10.6016C17.4988 11.0795 17.5704 11.5973 17.6936 12.0647Z" fill="white"/>
<path d="M20.4801 8.96969C19.8042 9.13633 19.3015 9.50332 19.207 10.2936C19.9548 10.1944 20.54 9.92841 20.7807 9.31885C20.858 9.12295 20.6846 8.91928 20.4801 8.96969Z" fill="white"/>
<path d="M19.3105 11.0632C19.6075 11.796 20.1841 12.0213 20.8872 12.0033C21.0981 11.9979 21.2123 11.7548 21.0848 11.5866C20.6923 11.0695 20.0545 10.9631 19.3105 11.0632Z" fill="white"/>
<path d="M14.8271 10.7713C14.2885 10.7825 13.9211 10.7673 13.4617 10.7487C13.3148 10.7428 13.1924 10.8603 13.1924 11.0074V16.5682H15.0911V11.0301C15.0911 10.8851 14.972 10.7683 14.8271 10.7713Z" fill="white"/>
</svg>
