<svg width="30" height="30" viewBox="0 0 30 30" fill="none" xmlns="http://www.w3.org/2000/svg">
<rect width="30" height="30" rx="4" fill="#D1152E"/>
<path d="M21.0375 12.4095C20.8841 12.2561 20.6354 12.2561 20.4819 12.4095L18.1436 14.7482C18.3518 14.9017 18.5423 15.0914 18.6986 15.3037L21.0375 12.9651C21.1907 12.8116 21.1907 12.5629 21.0375 12.4095Z" fill="white"/>
<path d="M15.2874 15.5604L12.3854 18.4625C11.6673 19.1806 11.6669 20.3429 12.3854 21.0614C13.1035 21.7795 14.2662 21.7797 14.9845 21.0614L17.8866 18.1593C18.6031 17.4428 18.6031 16.277 17.8866 15.5604C17.1638 14.8388 15.9991 14.8488 15.2874 15.5604ZM13.2417 18.9413C13.0886 18.7879 13.0886 18.5392 13.2417 18.3858L13.3815 18.2463C13.5349 18.0929 13.7836 18.0929 13.9368 18.2463C14.0902 18.3997 14.0902 18.6482 13.9368 18.8016L13.7973 18.9413C13.6447 19.0939 13.3956 19.0952 13.2417 18.9413ZM14.419 20.6446L14.2792 20.7844C14.1259 20.9378 13.8771 20.9375 13.7239 20.7844C13.5706 20.631 13.5706 20.3823 13.7239 20.2291L13.8635 20.0893C14.0169 19.9359 14.2656 19.9359 14.419 20.0893C14.5725 20.2428 14.5725 20.4915 14.419 20.6446ZM15.2508 17.9502L15.1112 18.09C14.9584 18.2427 14.7094 18.2437 14.5557 18.09C14.4023 17.9366 14.4023 17.6881 14.5557 17.5347L14.6955 17.3949C14.8489 17.2415 15.0973 17.2415 15.2508 17.3949C15.4042 17.5483 15.4042 17.7971 15.2508 17.9502ZM17.4978 17.8182L17.3583 17.958C17.2045 18.1113 16.9564 18.1112 16.8027 17.958C16.6496 17.8046 16.6496 17.5559 16.8027 17.4025L16.9425 17.2629C17.0959 17.1095 17.3443 17.1095 17.4978 17.2629C17.6512 17.4161 17.6512 17.6648 17.4978 17.8182Z" fill="white"/>
<path d="M11.098 14.585L8.96251 16.7202C8.80937 16.8737 8.80937 17.1224 8.96251 17.2758C9.11628 17.429 9.36431 17.429 9.51805 17.2758L11.653 15.1405C11.4377 14.9816 11.2508 14.7926 11.098 14.585Z" fill="white"/>
<path d="M14.4579 14.328L16.6481 12.1381C16.6949 12.0912 16.6992 12.0161 16.6569 11.9651C16.244 11.4672 16.1611 10.7737 16.4412 10.1934C16.4615 10.1512 16.4574 10.1015 16.4305 10.0632C16.1258 9.62915 16.05 9.07481 16.2238 8.57481C16.2529 8.49092 16.1936 8.40386 16.1049 8.40091C15.6129 8.38457 15.123 8.56811 14.765 8.92603L11.9106 11.7804C11.2082 12.4828 11.2082 13.6256 11.9106 14.328C12.6136 15.0316 13.7541 15.0323 14.4579 14.328ZM13.4764 11.182C13.5555 10.9798 13.7835 10.8804 13.9853 10.9597L15.5242 11.5631C15.7263 11.6425 15.8258 11.8702 15.7465 12.0721C15.6668 12.2755 15.4374 12.3732 15.2375 12.2943L13.6986 11.6909C13.4966 11.6116 13.3971 11.3838 13.4764 11.182ZM12.1412 12.5171C12.2203 12.3153 12.4483 12.2158 12.6501 12.2949L14.189 12.8986C14.3909 12.9776 14.4903 13.2054 14.4113 13.4075C14.3315 13.6108 14.102 13.7082 13.9023 13.6295L12.3632 13.026C12.1614 12.947 12.0619 12.719 12.1412 12.5171Z" fill="white"/>
</svg>
