<svg>
    <symbol id="cart" viewBox="0 0 30 30" xmlns="http://www.w3.org/2000/svg">
        <g clip-path="url(#clip0)">
            <path d="M20.542 10.3462C20.4702 10.2564 20.3615 10.2042 20.2464 10.2042H10.1699L9.88813 8.98319C9.84847 8.81142 9.69551 8.68973 9.51923 8.68973H7.8786C7.66952 8.68973 7.5 8.85925 7.5 9.06835C7.5 9.27746 7.66952 9.44695 7.8786 9.44695H9.21804L11.1307 17.7352C11.1703 17.907 11.3233 18.0287 11.4996 18.0287H19.0853C19.2944 18.0287 19.4639 17.8592 19.4639 17.6501C19.4639 17.441 19.2944 17.2715 19.0853 17.2715H11.8008L11.5096 16.0095H19.1106C19.2877 16.0095 19.4411 15.8867 19.4799 15.714L20.6158 10.6659C20.641 10.5537 20.6139 10.4361 20.542 10.3462Z" fill="#808080"/>
            <path d="M13.0523 18.5334C12.2868 18.5334 11.6641 19.1562 11.6641 19.9217C11.6641 20.6872 12.2868 21.3099 13.0523 21.3099C13.8177 21.3099 14.4405 20.6872 14.4405 19.9217C14.4405 19.1562 13.8178 18.5334 13.0523 18.5334Z" fill="#808080"/>
            <path d="M17.5952 18.5334C16.8298 18.5334 16.207 19.1562 16.207 19.9217C16.207 20.6872 16.8298 21.3099 17.5952 21.3099C18.3607 21.3099 18.9835 20.6872 18.9835 19.9217C18.9835 19.1562 18.3607 18.5334 17.5952 18.5334Z" fill="#808080"/>
        </g>
    </symbol> 

    <symbol id="map" viewBox="0 0 30 30" xmlns="http://www.w3.org/2000/svg">
        <g clip-path="url(#clip0)">
            <path d="M18.3348 10.7564C17.444 9.86561 16.2595 9.375 14.9997 9.375C13.7399 9.375 12.5555 9.86559 11.6646 10.7564C10.7738 11.6473 10.2832 12.8316 10.2832 14.0914C10.2832 15.3513 10.7738 16.5357 11.6646 17.4265L14.7667 20.5284C14.8311 20.5928 14.9154 20.625 14.9997 20.625C15.0841 20.625 15.1684 20.5928 15.2328 20.5284L18.3347 17.4265C19.2256 16.5357 19.7161 15.3513 19.7162 14.0915C19.7161 12.8316 19.2256 11.6472 18.3348 10.7564ZM16.481 15.5726C16.0853 15.9683 15.5593 16.1862 14.9998 16.1862C14.4402 16.1862 13.9142 15.9683 13.5186 15.5727C13.1229 15.177 12.905 14.651 12.905 14.0914C12.905 13.5319 13.1229 13.0059 13.5186 12.6102C13.9142 12.2146 14.4402 11.9967 14.9998 11.9967C15.5593 11.9967 16.0853 12.2146 16.481 12.6102C16.8766 13.0059 17.0945 13.5319 17.0945 14.0914C17.0945 14.651 16.8766 15.177 16.481 15.5726Z" fill="#7F7F7F"/>
        </g>
    </symbol> 

    <symbol id="logo" viewBox="0 0 97 21" xmlns="http://www.w3.org/2000/svg">
        <g>
            <path fill-rule="evenodd" clip-rule="evenodd" d="M70.7791 11.0044C70.7791 10.1952 70.2429 9.26741 69.1705 8.23171C68.5485 7.62755 68.2375 7.21758 68.2375 6.99642V3.86233C68.2399 3.77986 68.26 3.69889 68.2964 3.62498C68.356 3.54129 68.4382 3.4765 68.5332 3.43827C68.6282 3.40003 68.7321 3.38995 68.8326 3.40921C69.2134 3.40921 69.4118 3.56025 69.4171 3.87851V5.15696H70.7791V3.86233C70.7804 3.41778 70.6202 2.98807 70.3287 2.65401C70.1295 2.45339 69.8929 2.29424 69.6325 2.18565C69.3722 2.07707 69.0931 2.02118 68.8112 2.02118C68.5293 2.02118 68.2502 2.07707 67.9899 2.18565C67.7295 2.29424 67.4929 2.45339 67.2937 2.65401C67.011 2.99213 66.857 3.42045 66.8594 3.86233V7.0126C66.8594 7.62755 67.3098 8.36657 68.2106 9.24044C68.9989 10.0172 69.3957 10.6052 69.3957 11.0206V16.1829C69.3986 16.2404 69.3897 16.298 69.3694 16.3518C69.3491 16.4057 69.3179 16.4547 69.2777 16.4958C69.1422 16.5926 68.9765 16.6366 68.8112 16.6198C68.4519 16.6198 68.275 16.458 68.2375 16.1344V14.8667H66.8594V16.1829C66.8672 16.6222 67.033 17.0438 67.3259 17.3696C67.509 17.5828 67.7379 17.7513 67.9952 17.8625C68.2525 17.9737 68.5315 18.0246 68.8112 18.0116C69.078 18.0266 69.3451 17.9865 69.5959 17.8937C69.8468 17.8009 70.0761 17.6575 70.2697 17.4721C70.4356 17.3021 70.566 17.1005 70.6535 16.8792C70.741 16.6578 70.7837 16.4211 70.7791 16.1829V11.0044ZM74.8328 11.6787V4.25072C74.8175 4.11936 74.8286 3.98626 74.8655 3.85931C74.9023 3.73236 74.9642 3.61415 75.0473 3.5117C75.1425 3.43487 75.2636 3.39814 75.3851 3.40921H76.0393V11.6787H74.8328ZM75.369 2.01748C75.1197 2.00846 74.8713 2.05177 74.6396 2.14464C74.4079 2.23751 74.198 2.37792 74.0231 2.55691C73.814 2.79524 73.656 3.07445 73.5592 3.37705C73.4623 3.67966 73.4286 3.99913 73.4601 4.31545V17.99H74.8435V13.0704H76.05V18.0062H77.4281V2.01748H75.369ZM80.0394 2.01748V18.0062H81.4335V7.79477L83.1065 10.5998V18.0062H84.4846V2.01748H83.1119V8.57155L81.4389 5.74494V2.01748H80.0394Z" fill="#DB1814"/>
            <path fill-rule="evenodd" clip-rule="evenodd" d="M87.1504 2.01747V18.0062H88.5445V7.79476L90.2175 10.5998V18.0062H91.5956V2.01747H90.2175V8.57154L88.5445 5.74493V2.01747H87.1504Z" fill="black"/>
            <path fill-rule="evenodd" clip-rule="evenodd" d="M1.64531 11.6085V4.1806C1.63015 4.05009 1.64133 3.91784 1.67819 3.79178C1.71504 3.66572 1.77681 3.54844 1.85979 3.44697C1.95583 3.36738 2.07897 3.32867 2.20297 3.33909H2.85178V11.6085H1.64531ZM2.18152 1.94736C1.9314 1.93791 1.68206 1.981 1.44941 2.07388C1.21676 2.16676 1.0059 2.30738 0.830274 2.48679C0.621718 2.7224 0.463623 2.9987 0.365837 3.29846C0.268051 3.59822 0.232668 3.91503 0.261894 4.22915V17.9199H1.64531V13.0003H2.85178V17.9361H4.23519V1.94736H2.18152ZM7.78489 1.94736V17.9361H11.903V16.5443H9.18975V1.94736H7.78489ZM18.4447 3.35527H16.8629V7.62755H18.2302V9.0031H16.8629V16.5551H18.4447V17.9468H15.4795V1.94736H18.4447V3.35527ZM24.906 7.67071L25.276 7.36323C25.4928 7.12897 25.6598 6.85265 25.7667 6.5512C25.8737 6.24975 25.9183 5.92951 25.898 5.61009V1.94736H24.5038V5.61548C24.5038 6.15491 24.1339 6.69434 23.4046 7.27153V1.94736H22.0212V17.9361H23.4046V8.87903H23.9891C24.3698 8.87903 24.5682 9.04086 24.5789 9.36452V17.9199H25.9623V9.34833C25.983 8.99333 25.8922 8.64077 25.7026 8.34063C25.513 8.04049 25.2343 7.808 24.906 7.6761V7.67071ZM33.4853 10.9343C33.4853 10.1251 32.9491 9.19909 31.8767 8.15619C31.2493 7.55203 30.9437 7.14207 30.9437 6.92629V3.77602C30.9461 3.69355 30.9662 3.61258 31.0027 3.53868C31.0623 3.45498 31.1444 3.3902 31.2394 3.35196C31.3345 3.31373 31.4384 3.30365 31.5389 3.3229C31.9196 3.3229 32.118 3.47934 32.1234 3.79221V5.08684H33.5068V3.77602C33.5108 3.33261 33.3502 2.90364 33.0564 2.5731C32.8571 2.37167 32.6202 2.21183 32.3593 2.10277C32.0984 1.99371 31.8187 1.93756 31.5362 1.93756C31.2537 1.93756 30.974 1.99371 30.7131 2.10277C30.4522 2.21183 30.2154 2.37167 30.0161 2.5731C29.7177 2.90287 29.5482 3.3302 29.5388 3.77602V6.91551C29.5388 7.52686 29.9893 8.26947 30.8901 9.14335C31.6837 9.91294 32.0805 10.5063 32.0805 10.9235V16.0912C32.0845 16.1488 32.076 16.2067 32.0556 16.2607C32.0353 16.3147 32.0035 16.3636 31.9625 16.4041C31.8271 16.5009 31.6613 16.545 31.496 16.5281C31.1314 16.5281 30.9598 16.3663 30.9223 16.0427V14.7966H29.5388V16.1074C29.5467 16.5467 29.7124 16.9683 30.0053 17.2941C30.1893 17.5077 30.4191 17.6764 30.6773 17.7876C30.9355 17.8988 31.2154 17.9496 31.496 17.9361C31.7628 17.9511 32.0299 17.911 32.2807 17.8182C32.5316 17.7254 32.7609 17.582 32.9545 17.3966C33.1207 17.228 33.2515 17.0274 33.339 16.8068C33.4265 16.5863 33.469 16.3502 33.4639 16.1128L33.4853 10.9343ZM38.4774 11.6032V4.1806C38.4617 4.04967 38.4731 3.91689 38.511 3.79063C38.5488 3.66436 38.6122 3.54735 38.6973 3.44697C38.7437 3.40746 38.7975 3.37759 38.8555 3.35908C38.9134 3.34056 38.9745 3.33377 39.0351 3.33909H39.6785V11.6085L38.4774 11.6032ZM39.0136 1.94196C38.7635 1.93252 38.5142 1.97561 38.2815 2.06849C38.0489 2.16136 37.838 2.30199 37.6624 2.48139C37.4514 2.71397 37.2902 2.98768 37.1887 3.28555C37.0872 3.58342 37.0477 3.89908 37.0726 4.21296V17.9199H38.456V13.0003H39.6785V17.9361H41.0566V1.94736L39.0136 1.94196ZM44.6224 1.94196V17.9361H46.0165V7.72465L47.7216 10.5351V17.9361H49.1051V1.94736H47.7216V8.50143L46.0433 5.68021V1.94736L44.6224 1.94196ZM55.191 16.1344C55.191 16.4041 54.9873 16.5389 54.6012 16.5389H54.0167V3.41461H54.6012C54.9765 3.41461 55.1749 3.57104 55.191 3.88391V16.1344ZM52.6494 2.04446V17.9361H54.6012C54.8691 17.9535 55.1376 17.9145 55.3897 17.8216C55.6417 17.7287 55.8717 17.584 56.065 17.3966C56.2245 17.2338 56.3501 17.0408 56.4348 16.8287C56.5195 16.6167 56.5615 16.3898 56.5584 16.1613V3.88391C56.5604 3.44861 56.4062 3.02721 56.124 2.69717C55.9346 2.48206 55.6991 2.313 55.4354 2.20274C55.1716 2.09248 54.8864 2.04389 54.6012 2.06064L52.6494 2.04446ZM62.6926 11.1285C62.6926 11.3982 62.4888 11.533 62.1081 11.533H61.5183V3.33909H62.1081C62.2086 3.31983 62.3125 3.32991 62.4075 3.36815C62.5026 3.40638 62.5847 3.47117 62.6443 3.55486C62.69 3.63142 62.7141 3.71907 62.714 3.80839L62.6926 11.1285ZM60.1349 1.95815V17.9361H61.5183V13.0326C61.8638 13.2608 62.1902 13.517 62.4942 13.7986C62.6466 14.0108 62.7171 14.2716 62.6926 14.5323V17.9361H64.0599V14.9692C64.0803 14.654 64.0377 14.3379 63.9345 14.0395C63.8314 13.7412 63.6698 13.4667 63.4593 13.2322C63.3038 13.092 63.1215 12.9355 62.9231 12.7845C63.1684 12.6931 63.3901 12.5474 63.5719 12.3584C63.736 12.1972 63.8639 12.0027 63.9472 11.7878C64.0304 11.5729 64.067 11.3426 64.0545 11.1123V3.80839C64.064 3.36694 63.9091 2.93787 63.6202 2.60546C63.4345 2.38591 63.201 2.21234 62.9378 2.09821C62.6747 1.98409 62.3889 1.93247 62.1027 1.94736L60.1349 1.95815Z" fill="black"/>
            <path fill-rule="evenodd" clip-rule="evenodd" d="M95.2779 0C95.6183 0 95.9511 0.101555 96.2341 0.291822C96.5172 0.482089 96.7378 0.752524 96.8681 1.06893C96.9984 1.38533 97.0324 1.73349 96.966 2.06938C96.8996 2.40527 96.7357 2.71381 96.495 2.95597C96.2542 3.19814 95.9476 3.36305 95.6137 3.42987C95.2798 3.49668 94.9337 3.46239 94.6192 3.33133C94.3047 3.20027 94.0359 2.97833 93.8467 2.69358C93.6576 2.40882 93.5566 2.07404 93.5566 1.73157C93.5566 1.27233 93.738 0.831897 94.0608 0.507165C94.3836 0.182433 94.8214 0 95.2779 0V0ZM95.2779 0.22656C95.5738 0.22656 95.863 0.314828 96.109 0.4802C96.355 0.645573 96.5468 0.880623 96.66 1.15563C96.7733 1.43063 96.8029 1.73324 96.7452 2.02518C96.6874 2.31713 96.5449 2.58529 96.3357 2.79577C96.1265 3.00625 95.8599 3.14959 95.5697 3.20766C95.2795 3.26573 94.9787 3.23593 94.7054 3.12202C94.432 3.00811 94.1984 2.8152 94.034 2.56771C93.8696 2.32021 93.7818 2.02923 93.7818 1.73157C93.7818 1.33242 93.9395 0.949611 94.22 0.667367C94.5006 0.385123 94.8811 0.22656 95.2779 0.22656Z" fill="black"/>
            <path fill-rule="evenodd" clip-rule="evenodd" d="M94.4593 2.36809V1.28924H94.084V1.07886H95.092V1.29463H94.7167V2.37349L94.4593 2.36809ZM95.2529 2.36809V1.07886H95.639L95.8642 1.94734L96.0894 1.07886H96.4755V2.36809H96.2342V1.36476L95.9822 2.36809H95.7355L95.4835 1.36476V2.36809H95.2529Z" fill="black"/>
            <path d="M91.6915 20.2988H0V21.0001H91.6915V20.2988Z" fill="black"/>
        </g>
    </symbol>

    <symbol id="call" viewBox="0 0 30 30" xmlns="http://www.w3.org/2000/svg">
        <g clip-path="url(#clip0)">
            <path d="M19.7223 16.7593C19.0335 16.7593 18.3572 16.6516 17.7164 16.4398C17.4023 16.3327 17.0163 16.431 16.8246 16.6278L15.5597 17.5827C14.0927 16.7997 13.1891 15.8963 12.4167 14.4403L13.3435 13.2084C13.5843 12.9679 13.6707 12.6166 13.5672 12.287C13.3545 11.6428 13.2464 10.9668 13.2464 10.2778C13.2465 9.77997 12.8415 9.375 12.3437 9.375H10.2777C9.77997 9.375 9.375 9.77997 9.375 10.2777C9.375 15.9833 14.0167 20.625 19.7223 20.625C20.2201 20.625 20.625 20.22 20.625 19.7223V17.662C20.625 17.1643 20.22 16.7593 19.7223 16.7593Z" fill="white"/>
        </g>
    </symbol>
</svg>
