<svg>
    <symbol id="suchi" viewBox="0 0 46 46" xmlns="http://www.w3.org/2000/svg">
        <g>
            <circle cx="23" cy="23" r="23" fill="#D1152E"/>
            <path d="M14.1363 33.2875H15.9601C16.2036 33.2875 16.401 33.0901 16.401 32.8465V31.2666H13.6953V32.8465C13.6953 33.0901 13.8927 33.2875 14.1363 33.2875Z" fill="white"/>
            <path d="M30.0386 33.2875H31.8624C32.106 33.2875 32.3034 33.0901 32.3034 32.8465V31.2666H29.5977V32.8465C29.5977 33.0901 29.795 33.2875 30.0386 33.2875Z" fill="white"/>
            <path d="M33.8349 26.996H12.1618C11.9369 26.996 11.7539 27.1789 11.7539 27.4038V29.5359C11.7539 29.7608 11.9369 29.9438 12.1618 29.9438H33.8349C34.0598 29.9438 34.2428 29.7608 34.2428 29.5359V27.4038C34.2428 27.1789 34.0598 26.996 33.8349 26.996Z" fill="white"/>
            <path d="M13.7787 20.6915C13.578 21.1396 13.4727 21.629 13.4727 22.1348C13.4727 24.086 15.0597 25.673 17.0109 25.673H18.5988V20.7943C17.0359 20.8431 14.3602 20.8202 13.7787 20.6915ZM14.8678 22.9198C14.8678 22.5542 15.1642 22.2583 15.5293 22.2583C15.8944 22.2583 16.1907 22.5542 16.1907 22.9198V23.1676C16.1907 23.5331 15.8944 23.829 15.5293 23.829C15.1642 23.829 14.8678 23.5331 14.8678 23.1676V22.9198Z" fill="white"/>
            <path d="M29.6048 22.135C29.6048 20.9304 29.013 19.8746 28.0856 19.229C26.864 19.6093 25.7459 19.9098 24.4785 20.1608V25.6732H26.0674C28.0188 25.6732 29.6048 24.0954 29.6048 22.135ZM26.9713 20.9686C26.9713 20.6031 27.2677 20.3071 27.6328 20.3071C27.9978 20.3071 28.2942 20.6031 28.2942 20.9686V21.2164C28.2942 21.582 27.9978 21.8779 27.6328 21.8779C27.2677 21.8779 26.9713 21.582 26.9713 21.2164V20.9686ZM25.8137 23.6637V23.4159C25.8137 23.0504 26.1101 22.7545 26.4752 22.7545C26.8404 22.7545 27.1367 23.0504 27.1367 23.4159V23.6637C27.1367 24.0294 26.8404 24.3252 26.4752 24.3252C26.1101 24.3252 25.8137 24.0294 25.8137 23.6637Z" fill="white"/>
            <path d="M14.391 19.4423C14.7282 19.4551 14.9685 19.4636 15.3153 19.4727C15.1756 18.2193 15.3194 16.8785 15.6275 15.6725C15.3047 15.6483 14.9674 15.6227 14.6137 15.5958C13.5839 15.5208 12.6847 16.2622 12.5566 17.2745C12.4154 18.3868 13.2481 19.3949 14.391 19.4423Z" fill="white"/>
            <path d="M16.6514 19.4952C17.3278 19.4987 17.9743 19.4907 18.5978 19.4705C18.5978 19.0852 18.5978 16.4854 18.5978 15.882C18.1013 15.8507 17.5642 15.8141 16.9724 15.7717C16.6457 16.9444 16.4872 18.2919 16.6514 19.4952Z" fill="white"/>
            <path d="M26.3187 18.3699C26.0929 17.5196 25.9593 16.6234 25.8848 15.7396C25.4103 15.8133 24.9548 15.8702 24.4785 15.9142V18.8109C25.0881 18.6851 25.7028 18.5384 26.3187 18.3699Z" fill="white"/>
            <path d="M27.5898 17.9987C28.1996 17.8098 28.8228 17.6032 29.4281 17.399C28.9945 16.7076 28.8011 15.9104 28.8284 15.1606C28.2181 15.2947 27.6832 15.4089 27.1934 15.5059C27.2579 16.3201 27.3799 17.2022 27.5898 17.9987Z" fill="white"/>
            <path d="M32.3369 12.7257C31.1854 13.0096 30.329 13.6348 30.168 14.9812C31.4419 14.8121 32.4389 14.359 32.849 13.3205C32.9807 12.9868 32.6853 12.6398 32.3369 12.7257Z" fill="white"/>
            <path d="M30.3438 16.2926C30.8498 17.541 31.832 17.9247 33.0298 17.8942C33.3892 17.885 33.5838 17.4707 33.3665 17.1843C32.6978 16.3032 31.6113 16.1219 30.3438 16.2926Z" fill="white"/>
            <path d="M22.705 15.7966C21.7874 15.8157 21.1615 15.7897 20.3787 15.7582C20.1285 15.7481 19.9199 15.9483 19.9199 16.1988V25.6729H23.1548V16.2375C23.1548 15.9905 22.9519 15.7914 22.705 15.7966Z" fill="white"/>
        </g>
    </symbol>
</svg>
