<svg width="46" height="46" viewBox="0 0 46 46" fill="none" xmlns="http://www.w3.org/2000/svg">
<circle cx="23" cy="23" r="23" fill="#D1152E"/>
<path d="M22.8447 23.656C22.1282 23.656 21.5449 24.2475 21.5449 24.9741C21.5449 25.7008 22.1282 26.2921 22.8447 26.2921C23.5613 26.2921 24.1444 25.7008 24.1444 24.9741C24.1444 24.2475 23.5613 23.656 22.8447 23.656Z" fill="white"/>
<path d="M28.6938 21.0199H16.9961V28.9282H28.6938V21.0199ZM22.845 27.6102C21.4113 27.6102 20.2455 26.4278 20.2455 24.9741C20.2455 23.5202 21.4113 22.338 22.845 22.338C24.2787 22.338 25.4444 23.5202 25.4444 24.9741C25.4444 26.4278 24.2787 27.6102 22.845 27.6102Z" fill="white"/>
<path d="M28.6938 33.5853C28.6938 33.2211 28.4031 32.9263 28.0439 32.9263H27.6457L28.5121 30.2463H17.1778L18.0442 32.9263H17.646C17.2868 32.9263 16.9961 33.2211 16.9961 33.5853C16.9961 33.9496 17.2868 34.2444 17.646 34.2444H28.0439C28.4031 34.2444 28.6938 33.9496 28.6938 33.5853Z" fill="white"/>
<path d="M28.6938 16.3629C28.6938 15.9985 28.4031 15.7039 28.0439 15.7039H17.646C17.2868 15.7039 16.9961 15.9985 16.9961 16.3629C16.9961 16.7271 17.2868 17.0219 17.646 17.0219H18.0442L17.1778 19.7019H28.5121L27.6457 17.0219H28.0439C28.4031 17.0219 28.6938 16.7271 28.6938 16.3629Z" fill="white"/>
<path d="M20.7967 12.7681C20.4635 13.2367 20.3132 13.8296 20.3316 14.3856H25.3564C25.3749 13.8296 25.2243 13.2367 24.8913 12.7681C23.9305 11.418 21.7574 11.418 20.7967 12.7681Z" fill="white"/>
</svg>
