<svg width="46" height="46" viewBox="0 0 46 46" fill="none" xmlns="http://www.w3.org/2000/svg">
<circle cx="23" cy="23" r="23" fill="white"/>
<path d="M19.2333 28.8317C19.2332 28.8318 19.2331 28.8317 19.2331 28.8317V28.8316C19.2326 28.832 19.2322 28.8312 19.2322 28.8312V28.8313C19.0014 28.755 17.7232 27.677 15.6973 28.2096L17.4327 33.7822C17.5184 34.0574 17.77 34.2445 18.0546 34.2445H19.8759V34.2444H19.8762C19.4586 30.7302 19.5991 31.912 19.2333 28.8317Z" fill="black"/>
<path d="M26.2354 24.2548C26.2354 24.2548 26.2358 24.2548 26.2358 24.2544C27.3262 23.6453 28.5039 23.4435 29.6758 23.611C29.1653 20.7193 27.2033 18.8528 24.9705 18.1292C23.8817 19.1541 22.1811 19.042 21.2401 17.9814C18.795 18.5675 16.5579 20.4936 16.0078 23.611C17.1596 23.4457 18.3423 23.6357 19.4486 24.2544C21.6016 23.1205 24.1342 23.1433 26.2354 24.2548ZM24.9057 19.9317L25.147 19.6875C25.4013 19.4291 25.8144 19.4291 26.0693 19.6875C26.3241 19.9458 26.3241 20.3643 26.0693 20.6228L25.8279 20.8675C25.5724 21.1258 25.1604 21.1255 24.9057 20.8671C24.6508 20.6091 24.6508 20.1902 24.9057 19.9317ZM21.8097 21.3905L21.8932 21.0549C21.9814 20.7008 22.3358 20.486 22.6854 20.5755C23.0346 20.6646 23.2464 21.0244 23.1585 21.3785L23.0751 21.7137C22.9861 22.0686 22.6325 22.2828 22.2828 22.1934C21.9336 22.1044 21.7219 21.7446 21.8097 21.3905ZM19.572 20.7448L19.3307 20.5001C19.0763 20.2422 19.0763 19.8233 19.3307 19.5649C19.5855 19.3064 19.9986 19.3064 20.253 19.5649L20.4944 19.8096C20.7487 20.0676 20.7491 20.4865 20.4944 20.7448C20.241 21.0028 19.8259 21.0031 19.572 20.7448Z" fill="black"/>
<path d="M22.3116 17.1933C22.7985 17.6181 23.5184 17.627 24.0155 17.2203C24.6351 16.7117 24.6778 15.7766 24.1217 15.2126C23.6002 14.6846 22.7555 14.687 22.2372 15.2126C21.6918 15.7656 21.7214 16.6788 22.3116 17.1933Z" fill="black"/>
<path d="M30.7602 25.7332C30.8297 25.5103 30.7157 25.2699 30.4997 25.1879C28.4942 24.4272 27.1176 25.3068 26.8631 25.3727L26.8617 25.3731C26.8617 25.3731 26.864 25.3524 26.6406 27.2372C26.641 27.2367 26.6414 27.2363 26.642 27.2363C27.8164 26.6988 29.1048 26.5982 30.3824 26.9466C30.3929 26.9125 30.6165 26.195 30.7602 25.7332Z" fill="black"/>
<path d="M25.5116 14.921C26.2787 14.349 26.8853 13.5606 27.2409 12.6642C27.3757 12.3255 27.2135 11.9401 26.8795 11.8034C26.5452 11.6672 26.1656 11.8312 26.0308 12.1703C25.7485 12.882 25.2537 13.5029 24.6289 13.9341C24.9967 14.1812 25.3012 14.5164 25.5116 14.921Z" fill="black"/>
<path d="M19.0437 27.2361C19.0442 27.2361 19.0442 27.2361 19.0446 27.2365L19.0445 27.2363C19.0447 27.2363 19.0446 27.2363 19.0448 27.2364C18.8065 25.2314 18.8289 25.421 18.8239 25.3738C18.365 25.2188 17.09 24.4639 15.1855 25.1888C14.9702 25.2707 14.8573 25.5108 14.9266 25.7331C15.0003 25.9699 15.118 26.3478 15.3046 26.9473C16.5813 26.599 17.8692 26.6986 19.0437 27.2361Z" fill="black"/>
<path d="M25.5478 25.3832C23.8999 24.5453 21.9038 24.4881 20.139 25.3832V25.3833C20.1389 25.3833 20.1388 25.3833 20.1387 25.3834C20.1388 25.3838 20.3352 27.0467 20.3352 27.0467C20.3354 27.0464 20.3354 27.0465 20.3354 27.0464V27.0465C20.3358 27.0462 20.3357 27.0463 20.3358 27.0462H20.3362C21.7878 26.487 23.6456 26.4199 25.3492 27.0462C25.3497 27.0462 25.3502 27.0467 25.3506 27.0467C25.3506 27.0437 25.548 25.3895 25.548 25.3834C25.5479 25.3833 25.5479 25.3833 25.5478 25.3833V25.3832Z" fill="black"/>
<path d="M26.4526 28.8321V28.832C26.4518 28.832 26.4513 28.832 26.4509 28.8324L25.8086 34.2442H25.8088V34.2444H27.6311C27.9156 34.2444 28.1674 34.0573 28.253 33.7822L29.9889 28.2091C27.9652 27.678 26.6962 28.7511 26.4526 28.8321Z" fill="black"/>
<path d="M25.1898 28.403H25.1894C25.189 28.4026 25.1886 28.4026 25.1883 28.4026V28.4023C25.1882 28.4023 25.1882 28.4023 25.1881 28.4023V28.4022C25.1878 28.4019 25.1874 28.402 25.187 28.4019C24.1378 28.0386 22.5844 27.5027 20.4972 28.4017V28.4018C20.4971 28.4018 20.497 28.4018 20.497 28.4019V28.4021C20.4967 28.4021 20.4967 28.4021 20.4963 28.4021V28.4023C20.4962 28.4023 20.4962 28.4023 20.4961 28.4023C20.9452 32.1875 20.797 30.9384 21.189 34.2443H21.1893V34.2445H24.4966V34.2443H24.4968C24.4984 34.2299 25.19 28.4032 25.19 28.4032H25.1898V28.403Z" fill="black"/>
</svg>
