<svg width="46" height="46" viewBox="0 0 46 46" fill="none" xmlns="http://www.w3.org/2000/svg">
<circle cx="23" cy="23" r="23" fill="#D1152E"/>
<path d="M28.2711 13.0732C28.6401 13.0732 28.9299 12.7832 28.9299 12.4143C28.9299 12.0453 28.6401 11.7555 28.2711 11.7555H25.6357C25.3194 11.7555 25.0559 11.9794 24.9899 12.2826L24.5684 14.4348H25.9124L26.1759 13.0732H28.2711Z" fill="white"/>
<path d="M17.3883 22.2226C17.5727 23.1844 17.8099 24.3704 18.1525 25.8199C18.2975 26.4393 18.3766 27.0981 18.3898 27.7832C18.4028 28.4553 18.2581 29.4304 18.0734 30.2474H27.93C27.7454 29.4304 27.6006 28.4553 27.6135 27.7832C27.6268 27.0981 27.7058 26.4393 27.8509 25.8199C28.1935 24.3704 28.4306 23.1844 28.6151 22.2226C28.7732 21.3792 28.826 20.549 28.7997 19.7057H23.2784L24.0163 20.4437C24.2667 20.7073 24.2667 21.1157 24.0163 21.3792L22.1451 23.2372C22.0266 23.3689 21.8553 23.4348 21.6839 23.4348C21.5127 23.4348 21.3414 23.3689 21.2229 23.2372L19.3516 21.3792C19.1013 21.1157 19.1013 20.7073 19.3516 20.4437L20.0896 19.7057H17.2037C17.1774 20.549 17.2301 21.3792 17.3883 22.2226ZM21.025 25.6354C21.025 25.2664 21.315 24.9766 21.6839 24.9766H24.3193C24.6883 24.9766 24.9781 25.2664 24.9781 25.6354V28.2708C24.9781 28.6397 24.6883 28.9297 24.3193 28.9297H21.6839C21.315 28.9297 21.025 28.6397 21.025 28.2708V25.6354Z" fill="white"/>
<path d="M21.6837 21.8404L22.6193 20.9048L21.6837 19.9824L20.748 20.9048L21.6837 21.8404Z" fill="white"/>
<path d="M22.3418 26.2943H23.6594V27.612H22.3418V26.2943Z" fill="white"/>
<path d="M17.1906 33.9677C17.3224 34.1389 17.52 34.2444 17.7307 34.2444H28.2724C28.4832 34.2444 28.6809 34.1389 28.8127 33.9677C28.9312 33.7965 28.9709 33.5723 28.8918 33.3747L28.312 31.5651H17.6912L17.1115 33.3747C17.0324 33.5723 17.0718 33.7965 17.1906 33.9677Z" fill="white"/>
<path d="M28.6809 18.388C28.4964 17.1625 28.1143 15.9502 27.5476 14.8037C27.4291 14.5798 27.2051 14.4348 26.9547 14.4348H25.9136L25.123 18.388H28.6809Z" fill="white"/>
<path d="M18.4554 14.8037C17.8888 15.9502 17.5067 17.1625 17.3223 18.388H23.779L24.5696 14.4348H19.0483C18.798 14.4348 18.5741 14.5798 18.4554 14.8037Z" fill="white"/>
</svg>
