<svg width="46" height="46" viewBox="0 0 46 46" fill="none" xmlns="http://www.w3.org/2000/svg">
<circle cx="23" cy="23" r="23" fill="white"/>
<path d="M17.2075 16.5224C16.9551 16.7784 16.9551 17.1935 17.2075 17.4495C17.3338 17.5776 17.4992 17.6416 17.6647 17.6416C17.8301 17.6416 17.9956 17.5775 18.1218 17.4495C18.9845 16.5747 18.9844 15.1512 18.1218 14.2764C17.7633 13.9128 17.7633 13.3212 18.1218 12.9576C18.3742 12.7015 18.3742 12.2864 18.1218 12.0304C17.8693 11.7743 17.46 11.7744 17.2075 12.0304C16.3449 12.9053 16.3449 14.3287 17.2075 15.2036C17.5661 15.5672 17.5661 16.1588 17.2075 16.5224Z" fill="black"/>
<path d="M20.7075 16.5224C20.455 16.7784 20.455 17.1935 20.7075 17.4495C20.8338 17.5775 20.9992 17.6416 21.1647 17.6416C21.3301 17.6416 21.4956 17.5775 21.6218 17.4495C22.4845 16.5747 22.4845 15.1512 21.6218 14.2764C21.2632 13.9128 21.2632 13.3211 21.6218 12.9576C21.8743 12.7015 21.8743 12.2864 21.6218 12.0304C21.3693 11.7744 20.9599 11.7744 20.7075 12.0304C19.8449 12.9052 19.8449 14.3287 20.7075 15.2035C21.066 15.5671 21.066 16.1587 20.7075 16.5224Z" fill="black"/>
<path d="M24.2096 16.5224C23.9571 16.7784 23.9571 17.1935 24.2096 17.4495C24.3358 17.5775 24.5012 17.6416 24.6667 17.6416C24.8322 17.6416 24.9976 17.5775 25.1238 17.4495C25.9866 16.5747 25.9866 15.1512 25.1238 14.2764C24.7652 13.9128 24.7652 13.3211 25.1238 12.9576C25.3763 12.7015 25.3763 12.2864 25.1238 12.0304C24.8714 11.7744 24.4621 11.7744 24.2096 12.0304C23.3468 12.9052 23.3468 14.3287 24.2096 15.2035C24.5681 15.5671 24.5681 16.1587 24.2096 16.5224Z" fill="black"/>
<path d="M29.3616 20.1579L30.9447 17.8073V17.8072L31.0945 17.9109C31.3894 18.1151 31.7916 18.038 31.993 17.7392C32.1943 17.4402 32.1185 17.0322 31.8236 16.828C31.6137 16.6826 31.082 16.3145 30.4565 15.8813C30.1617 15.6772 29.7595 15.754 29.5581 16.053C29.3567 16.352 29.4325 16.76 29.7274 16.9641L29.8771 17.0678L28.2949 19.4175C28.6849 19.5764 29.0573 19.8273 29.3616 20.1579Z" fill="black"/>
<path d="M27.592 22.8671C28.0066 22.7967 28.4277 22.8064 28.8302 22.8968C29.2721 21.1694 27.6294 19.9009 26.1309 20.8099C26.7554 21.3915 27.2558 22.0904 27.592 22.8671Z" fill="black"/>
<path d="M26.3764 23.322C25.5785 21.5546 23.6828 20.3271 21.4993 20.3271C17.0592 20.3271 13.3272 23.4976 12.9492 27.5666H24.8813C24.2716 26.0569 24.8978 24.2216 26.3764 23.322Z" fill="black"/>
<path d="M33.7422 21.4174C33.6108 21.2842 32.6724 20.3325 32.5716 20.2303C32.3191 19.9743 31.9098 19.9743 31.6573 20.2303C31.4049 20.4864 31.4049 20.9015 31.6573 21.1575L31.7855 21.2875L29.8008 23.3001C30.1726 23.5405 30.4836 23.8574 30.7145 24.2276L32.6997 22.2144L32.828 22.3445C33.0805 22.6005 33.4898 22.6005 33.7423 22.3445C33.9948 22.0885 33.9948 21.6734 33.7422 21.4174Z" fill="black"/>
<path d="M26.3858 27.5668H29.1399C30.0276 26.7704 30.1616 25.4188 29.3933 24.6397C29.3882 24.6344 29.3834 24.6296 29.3783 24.6248C27.6175 22.8835 24.7983 25.7854 26.3858 27.5668Z" fill="black"/>
<path d="M15.8928 33.5983C15.9382 33.9215 16.2111 34.1615 16.5329 34.1615H28.9564C29.2781 34.1615 29.551 33.9215 29.5964 33.5983L29.7392 32.5815H15.75L15.8928 33.5983Z" fill="black"/>
<path d="M33.3037 28.8777H12.1849C11.9469 28.8777 11.7539 29.0733 11.7539 29.3148V30.4441C11.7539 30.9004 12.1186 31.2702 12.5685 31.2702H32.9201C33.37 31.2702 33.7346 30.9004 33.7346 30.4441V29.3148C33.7346 29.0733 33.5418 28.8777 33.3037 28.8777Z" fill="black"/>
</svg>
