<svg width="46" height="46" viewBox="0 0 46 46" fill="none" xmlns="http://www.w3.org/2000/svg">
<circle cx="23" cy="23" r="23" fill="#D1152E"/>
<path d="M23.0559 14.6225C23.4981 16.1843 22.6357 17.7434 21.2224 18.2768C19.5604 18.904 17.6994 17.9645 17.238 16.2238L15.1523 16.7978C14.7905 24.2968 21.7075 31.2083 29.2014 30.8468L31.0744 24.0401C29.163 23.5235 27.9463 21.5516 28.4399 19.5568C28.9355 17.5541 31.0025 16.2971 33.0484 16.8665L34.2185 12.6148C34.3582 12.1073 33.8918 11.6409 33.3843 11.7806L23.0559 14.6225ZM24.7178 17.2035C24.8997 16.8756 25.3126 16.7571 25.6401 16.9385L26.5742 17.4564C26.9021 17.6377 27.0207 18.0507 26.8388 18.3787C26.6593 18.7022 26.25 18.8266 25.9165 18.6433L24.9825 18.1259C24.6549 17.944 24.5364 17.531 24.7178 17.2035ZM19.7226 21.332H18.6547C18.2802 21.332 17.9762 21.0285 17.9762 20.6534C17.9762 20.2789 18.2802 19.975 18.6547 19.975H19.7226C20.0972 19.975 20.4012 20.2789 20.4012 20.6534C20.4012 21.0285 20.0972 21.332 19.7226 21.332ZM21.3081 23.3159C21.3081 21.9503 22.4194 20.8394 23.785 20.8394C25.1502 20.8394 26.2612 21.9503 26.2612 23.3159C26.2612 24.6815 25.1502 25.7924 23.785 25.7924C22.4194 25.7924 21.3081 24.6815 21.3081 23.3159ZM27.0523 28.6109L25.9848 28.5775C25.6102 28.5661 25.3162 28.2531 25.3275 27.8786C25.3393 27.5036 25.6518 27.2091 26.0269 27.2214L27.0944 27.2544C27.4689 27.2662 27.7629 27.5792 27.7516 27.9537C27.7405 28.2992 27.4679 28.6109 27.0523 28.6109ZM31.3047 14.5505L30.7189 15.4439C30.5138 15.7566 30.0941 15.8455 29.7799 15.6394C29.4663 15.434 29.3786 15.0133 29.584 14.6999L30.1697 13.807C30.3751 13.4935 30.7957 13.4057 31.1093 13.6111C31.4228 13.8169 31.51 14.2371 31.3047 14.5505Z" fill="white"/>
<path d="M29.3581 32.1978C20.9922 32.6612 13.3403 24.9892 13.8027 16.6424C13.8196 16.3261 13.5461 16.0666 13.2215 16.129C12.8027 16.2134 13.0416 16.1652 12.2481 16.3253C12.0431 16.3669 11.8875 16.532 11.8618 16.7365C10.6657 26.2122 19.7965 35.3336 29.264 34.1387C29.4684 34.1129 29.6335 33.9573 29.6752 33.7525C29.8347 32.9618 29.7868 33.199 29.8715 32.779C29.9352 32.462 29.6793 32.1805 29.3581 32.1978Z" fill="white"/>
<path d="M20.724 17.0135C21.5165 16.7255 22.003 15.854 21.7492 14.9822L18.5449 15.8642C18.7834 16.8035 19.7937 17.3516 20.724 17.0135Z" fill="white"/>
<path d="M29.7364 19.9747C29.4845 21.2025 30.2296 22.4109 31.4343 22.7325L32.6885 18.1747H32.6881C31.3539 17.801 30.0077 18.6519 29.7364 19.9747Z" fill="white"/>
<path d="M23.7861 22.1964C23.1686 22.1964 22.666 22.6984 22.666 23.3159C22.666 23.9334 23.1686 24.4355 23.7861 24.4355C24.403 24.4355 24.9051 23.9334 24.9051 23.3159C24.9051 22.6985 24.403 22.1964 23.7861 22.1964Z" fill="white"/>
</svg>
