<svg width="46" height="46" viewBox="0 0 46 46" fill="none" xmlns="http://www.w3.org/2000/svg">
<circle cx="23" cy="23" r="23" fill="#D1152E"/>
<path d="M15.1616 21.3173H30.8425C31.2683 20.2004 30.8762 18.9056 29.8265 18.2279C29.6065 18.0855 29.4909 17.8266 29.5324 17.5673C29.796 15.9201 28.4615 14.4617 26.7989 14.5803C26.4488 14.6045 26.1406 14.3523 26.096 14.0048C25.9311 12.7225 24.8305 11.7555 23.5363 11.7555C22.0033 11.7555 20.809 13.0755 20.9681 14.6089C21.0222 15.1254 20.4835 15.5023 20.0152 15.2691C18.2399 14.3837 16.1583 15.7602 16.29 17.7539C16.3045 17.9775 16.2049 18.1934 16.0254 18.3276C15.0068 19.0877 14.7732 20.3263 15.1616 21.3173ZM27.0737 19.0463L27.3664 18.7531C27.6248 18.4951 28.0438 18.4947 28.3017 18.7531C28.5601 19.0114 28.5601 19.4303 28.3017 19.6888L28.0089 19.9816C27.7516 20.2389 27.3321 20.2405 27.0732 19.9816C26.8152 19.7232 26.8152 19.3047 27.0737 19.0463ZM24.7251 16.6091C24.7251 16.244 25.0209 15.9477 25.3865 15.9477C25.7516 15.9477 26.048 16.244 26.048 16.6091V17.0236C26.048 17.3887 25.7516 17.6851 25.3865 17.6851C25.0209 17.6851 24.7251 17.3887 24.7251 17.0236V16.6091ZM18.6707 17.8914C18.9287 17.633 19.3476 17.633 19.606 17.8914L19.8992 18.1842C20.1572 18.4427 20.1572 18.8616 19.8988 19.12C19.6421 19.3775 19.2222 19.3786 18.9636 19.12L18.6707 18.8267C18.4123 18.5683 18.4123 18.1498 18.6707 17.8914Z" fill="white"/>
<path d="M19.1191 33.1089V33.8034C19.1191 34.0469 19.3165 34.2444 19.56 34.2444H26.439C26.6826 34.2444 26.88 34.0469 26.88 33.8034V33.1089C26.5647 33.1289 19.4151 33.1277 19.1191 33.1089Z" fill="white"/>
<path d="M14.4355 26.7173C14.4355 29.5225 16.7186 31.7985 19.5167 31.7985H26.483C29.2809 31.7985 31.5642 29.5227 31.5642 26.7173V25.3292H14.4355V26.7173Z" fill="white"/>
<path d="M14.4355 23.0814V24.0065H31.5642V23.0814C31.5642 22.8378 31.3667 22.6404 31.1232 22.6404H14.8765C14.633 22.6404 14.4355 22.8378 14.4355 23.0814Z" fill="white"/>
</svg>
