<svg width="46" height="46" viewBox="0 0 46 46" fill="none" xmlns="http://www.w3.org/2000/svg">
<circle cx="23" cy="23" r="23" fill="white"/>
<path d="M33.2859 18.5864C33.0246 18.3249 32.6008 18.3249 32.3394 18.5864L28.3555 22.5707C28.7103 22.8323 29.0348 23.1555 29.301 23.5172L33.2859 19.5328C33.5468 19.2714 33.5468 18.8477 33.2859 18.5864Z" fill="black"/>
<path d="M23.489 23.9547L18.5448 28.8989C17.3213 30.1223 17.3207 32.1026 18.5448 33.3267C19.7682 34.5501 21.749 34.5505 22.9728 33.3267L27.9171 28.3824C29.1379 27.1616 29.1379 25.1754 27.9171 23.9547C26.6858 22.7251 24.7014 22.7423 23.489 23.9547ZM20.0037 29.7147C19.7428 29.4533 19.7428 29.0296 20.0037 28.7682L20.2419 28.5305C20.5033 28.2692 20.927 28.2692 21.1879 28.5305C21.4492 28.7919 21.4492 29.2152 21.1879 29.4766L20.9502 29.7147C20.6902 29.9746 20.2659 29.9769 20.0037 29.7147ZM22.0095 32.6166L21.7713 32.8547C21.5101 33.116 21.0862 33.1156 20.8253 32.8547C20.564 32.5934 20.564 32.1696 20.8253 31.9087L21.063 31.6705C21.3244 31.4091 21.7481 31.4091 22.0095 31.6705C22.2709 31.932 22.2709 32.3557 22.0095 32.6166ZM23.4265 28.0261L23.1887 28.2642C22.9285 28.5245 22.5042 28.5261 22.2423 28.2642C21.981 28.0029 21.981 27.5796 22.2423 27.3183L22.4804 27.08C22.7418 26.8187 23.1651 26.8187 23.4265 27.08C23.6879 27.3414 23.6879 27.7652 23.4265 28.0261ZM27.2547 27.8013L27.0171 28.0395C26.7551 28.3005 26.3325 28.3004 26.0706 28.0395C25.8097 27.7781 25.8097 27.3544 26.0706 27.093L26.3088 26.8552C26.5701 26.5938 26.9933 26.5938 27.2547 26.8552C27.5161 27.1162 27.5161 27.5399 27.2547 27.8013Z" fill="black"/>
<path d="M16.3515 22.2928L12.7133 25.9307C12.4524 26.1921 12.4524 26.6158 12.7133 26.8772C12.9752 27.1383 13.3978 27.1382 13.6597 26.8772L17.2971 23.2393C16.9302 22.9685 16.6119 22.6466 16.3515 22.2928Z" fill="black"/>
<path d="M22.0752 21.8552L25.8066 18.1242C25.8865 18.0444 25.8938 17.9164 25.8218 17.8295C25.1183 16.9813 24.977 15.7997 25.4542 14.8111C25.4888 14.7392 25.4818 14.6545 25.436 14.5892C24.9169 13.8498 24.7878 12.9053 25.0838 12.0535C25.1334 11.9106 25.0324 11.7622 24.8812 11.7572C24.0431 11.7294 23.2084 12.0421 22.5985 12.6519L17.7354 17.5149C16.5387 18.7116 16.5387 20.6585 17.7354 21.8553C18.9331 23.0539 20.8763 23.0551 22.0752 21.8552ZM20.4031 16.4953C20.5378 16.151 20.9263 15.9815 21.2701 16.1166L23.8919 17.1447C24.2363 17.2799 24.4057 17.6679 24.2707 18.0118C24.1348 18.3584 23.744 18.5248 23.4035 18.3904L20.7817 17.3624C20.4374 17.2272 20.2679 16.8392 20.4031 16.4953ZM18.1283 18.77C18.2631 18.4261 18.6515 18.2566 18.9954 18.3914L21.6172 19.4199C21.961 19.5545 22.1305 19.9427 21.9958 20.287C21.8598 20.6334 21.4688 20.7993 21.1288 20.6652L18.5066 19.637C18.1627 19.5024 17.9932 19.114 18.1283 18.77Z" fill="black"/>
</svg>
