<svg width="30" height="30" viewBox="0 0 30 30" fill="none" xmlns="http://www.w3.org/2000/svg">
<circle cx="15" cy="15" r="15" fill="#D1152E"/>
<g clip-path="url(#clip0)">
<path d="M19.7223 16.7593C19.0335 16.7593 18.3572 16.6516 17.7164 16.4398C17.4023 16.3327 17.0163 16.431 16.8246 16.6278L15.5597 17.5827C14.0927 16.7997 13.1891 15.8963 12.4167 14.4403L13.3435 13.2084C13.5843 12.9679 13.6707 12.6166 13.5672 12.287C13.3545 11.6428 13.2464 10.9668 13.2464 10.2778C13.2465 9.77997 12.8415 9.375 12.3437 9.375H10.2777C9.77997 9.375 9.375 9.77997 9.375 10.2777C9.375 15.9833 14.0167 20.625 19.7223 20.625C20.2201 20.625 20.625 20.22 20.625 19.7223V17.662C20.625 17.1643 20.22 16.7593 19.7223 16.7593Z" fill="white"/>
</g>
<defs>
<clipPath id="clip0">
<rect width="11.25" height="11.25" fill="white" transform="translate(9.375 9.375)"/>
</clipPath>
</defs>
</svg>
