<svg width="30" height="30" viewBox="0 0 30 30" fill="none" xmlns="http://www.w3.org/2000/svg">
<circle cx="15" cy="15" r="14.5" stroke="#E4E4E4"/>
<g clip-path="url(#clip0)">
<path d="M20.542 10.3462C20.4702 10.2564 20.3615 10.2042 20.2464 10.2042H10.1699L9.88813 8.98319C9.84847 8.81142 9.69551 8.68973 9.51923 8.68973H7.8786C7.66952 8.68973 7.5 8.85925 7.5 9.06835C7.5 9.27746 7.66952 9.44695 7.8786 9.44695H9.21804L11.1307 17.7352C11.1703 17.907 11.3233 18.0287 11.4996 18.0287H19.0853C19.2944 18.0287 19.4639 17.8592 19.4639 17.6501C19.4639 17.441 19.2944 17.2715 19.0853 17.2715H11.8008L11.5096 16.0095H19.1106C19.2877 16.0095 19.4411 15.8867 19.4799 15.714L20.6158 10.6659C20.641 10.5537 20.6139 10.4361 20.542 10.3462Z" fill="#808080"/>
<path d="M13.0523 18.5334C12.2868 18.5334 11.6641 19.1562 11.6641 19.9217C11.6641 20.6872 12.2868 21.3099 13.0523 21.3099C13.8177 21.3099 14.4405 20.6872 14.4405 19.9217C14.4405 19.1562 13.8178 18.5334 13.0523 18.5334Z" fill="#808080"/>
<path d="M17.5952 18.5334C16.8298 18.5334 16.207 19.1562 16.207 19.9217C16.207 20.6872 16.8298 21.3099 17.5952 21.3099C18.3607 21.3099 18.9835 20.6872 18.9835 19.9217C18.9835 19.1562 18.3607 18.5334 17.5952 18.5334Z" fill="#808080"/>
</g>
<defs>
<clipPath id="clip0">
<rect width="13.125" height="13.125" fill="white" transform="translate(7.5 8.4375)"/>
</clipPath>
</defs>
</svg>
