<svg width="30" height="30" viewBox="0 0 30 30" fill="none" xmlns="http://www.w3.org/2000/svg">
<circle cx="15" cy="15" r="14.5" stroke="#E4E4E4"/>
<g clip-path="url(#clip0)">
<path d="M18.3348 10.7564C17.444 9.86561 16.2595 9.375 14.9997 9.375C13.7399 9.375 12.5555 9.86559 11.6646 10.7564C10.7738 11.6473 10.2832 12.8316 10.2832 14.0914C10.2832 15.3513 10.7738 16.5357 11.6646 17.4265L14.7667 20.5284C14.8311 20.5928 14.9154 20.625 14.9997 20.625C15.0841 20.625 15.1684 20.5928 15.2328 20.5284L18.3347 17.4265C19.2256 16.5357 19.7161 15.3513 19.7162 14.0915C19.7161 12.8316 19.2256 11.6472 18.3348 10.7564ZM16.481 15.5726C16.0853 15.9683 15.5593 16.1862 14.9998 16.1862C14.4402 16.1862 13.9142 15.9683 13.5186 15.5727C13.1229 15.177 12.905 14.651 12.905 14.0914C12.905 13.5319 13.1229 13.0059 13.5186 12.6102C13.9142 12.2146 14.4402 11.9967 14.9998 11.9967C15.5593 11.9967 16.0853 12.2146 16.481 12.6102C16.8766 13.0059 17.0945 13.5319 17.0945 14.0914C17.0945 14.651 16.8766 15.177 16.481 15.5726Z" fill="#7F7F7F"/>
</g>
<defs>
<clipPath id="clip0">
<rect width="11.25" height="11.25" fill="white" transform="translate(9.375 9.375)"/>
</clipPath>
</defs>
</svg>
