<svg width="24" height="24" viewBox="0 0 24 24" fill="none" xmlns="http://www.w3.org/2000/svg">
<rect width="24" height="24" rx="4" fill="#D1152E"/>
<path d="M7.4693 14.8408H16.5301C16.6231 14.7697 16.6831 14.6579 16.6831 14.5324V13.8524C16.6831 13.6479 16.5189 13.4646 16.2952 13.4646H15.3195L15.3188 13.4652C15.0998 13.7188 14.7712 13.849 14.4451 13.849C14.1187 13.849 13.7901 13.7188 13.5708 13.4652C13.5706 13.465 13.5704 13.4648 13.5702 13.4646H12.3114C12.3115 13.4648 12.3115 13.465 12.3114 13.4652C12.2348 14.1041 11.707 14.4375 11.1853 14.4375C10.6629 14.4375 10.1348 14.1041 10.0581 13.4652C10.0579 13.465 10.0579 13.4648 10.0581 13.4646C7.64638 13.4646 7.68433 13.465 7.68433 13.465C7.47959 13.4755 7.31641 13.6451 7.31641 13.8524V14.5324C7.31639 14.6579 7.37637 14.7697 7.4693 14.8408Z" fill="white"/>
<path d="M7.70425 12.8226H10.0485V12.822V12.218C9.89383 12.287 9.72425 12.3219 9.55525 12.3219C9.0152 12.3219 8.51151 11.9751 8.43026 11.3669H7.70425C7.4903 11.3669 7.31641 11.5408 7.31641 11.7546V12.4348C7.31639 12.6403 7.4818 12.8226 7.70425 12.8226Z" fill="white"/>
<path d="M13.3098 11.4082V12.8228H12.3223V11.4082C12.4735 11.4737 12.6416 11.5084 12.8159 11.5084C12.9851 11.5084 13.1549 11.4748 13.3098 11.4082Z" fill="white"/>
<path d="M16.6845 12.4348V11.7546C16.6845 11.5408 16.5106 11.3669 16.2966 11.3669H15.5824V12.714C15.5824 12.7509 15.5809 12.7868 15.5784 12.822C15.5784 12.8222 15.5784 12.8224 15.5781 12.8226H16.2966C16.5111 12.8226 16.6845 12.648 16.6845 12.4348Z" fill="white"/>
<path d="M7.70425 10.7247H8.41848V9.26904H7.70425C7.4903 9.26904 7.31641 9.44293 7.31641 9.65689V10.3369C7.31639 10.5506 7.4903 10.7247 7.70425 10.7247Z" fill="white"/>
<path d="M16.6841 10.3369V9.65689C16.6841 9.44293 16.5102 9.26904 16.2962 9.26904H15.582V10.7247H16.2962C16.5102 10.7247 16.6841 10.5506 16.6841 10.3369Z" fill="white"/>
<path d="M6.935 15.4834C6.79188 15.4834 6.68904 15.6211 6.72964 15.7583L7.02269 16.7491C7.0711 16.9127 7.224 17.0269 7.39449 17.0269H16.607C16.7774 17.0269 16.9303 16.9127 16.9788 16.7491L17.2718 15.7583C17.3124 15.6211 17.2095 15.4834 17.0664 15.4834H6.935Z" fill="white"/>
<path d="M14.2976 8.55371C14.6524 8.55371 14.9401 8.84136 14.9401 9.19619V12.7143C14.9401 13.0432 14.7127 13.2066 14.4466 13.2066C14.168 13.2066 13.9525 13.0312 13.9525 12.7143V9.82952C13.9525 9.65648 13.8194 9.50759 13.6465 9.49959C13.4621 9.49108 13.31 9.6381 13.31 9.8205V10.4142C13.31 10.7179 13.0839 10.866 12.8162 10.866C12.547 10.866 12.3225 10.7157 12.3225 10.4142C12.3225 10.2366 12.1786 10.0929 12.0013 10.0929C11.824 10.0929 11.68 10.2366 11.68 10.4142V13.3028C11.68 13.6253 11.4624 13.7951 11.1868 13.7951C10.909 13.7951 10.6925 13.624 10.6925 13.3028V9.86677C10.6925 9.68442 10.5405 9.53734 10.3561 9.54585C10.1831 9.55382 10.05 9.70271 10.05 9.87579V11.1875C10.05 11.5137 9.82794 11.6799 9.55679 11.6796C9.28631 11.6796 9.0625 11.5141 9.0625 11.1873V9.19619C9.0625 8.84136 9.35014 8.55371 9.70496 8.55371H14.2976Z" fill="white"/>
<path d="M12.9069 7.91105H11.0964C11.0769 7.40514 11.483 6.97266 12.0016 6.97266C12.5165 6.97266 12.9265 7.40137 12.9069 7.91105Z" fill="white"/>
</svg>
