<svg width="24" height="24" viewBox="0 0 24 24" fill="none" xmlns="http://www.w3.org/2000/svg">
<rect width="24" height="24" rx="4" fill="#D1152E"/>
<path d="M10.2327 14.7382C10.2326 14.7383 10.2326 14.7382 10.2326 14.7382V14.7382C10.2323 14.7383 10.2321 14.738 10.2321 14.738V14.738C10.1238 14.7022 9.5236 14.196 8.57227 14.4461L9.38714 17.0628C9.42739 17.192 9.54557 17.2799 9.67919 17.2799H10.5344V17.2798H10.5345C10.3385 15.6297 10.4044 16.1846 10.2327 14.7382Z" fill="white"/>
<path d="M13.5213 12.5891C13.5213 12.5891 13.5215 12.5891 13.5215 12.5889C14.0335 12.3028 14.5865 12.2081 15.1367 12.2868C14.897 10.9289 13.9758 10.0525 12.9273 9.71267C12.4161 10.194 11.6175 10.1413 11.1756 9.64331C10.0275 9.91849 8.97704 10.8229 8.71875 12.2868C9.25961 12.2092 9.81494 12.2983 10.3344 12.5889C11.3454 12.0564 12.5346 12.0671 13.5213 12.5891ZM12.8969 10.5591L13.0102 10.4444C13.1296 10.3231 13.3236 10.3231 13.4433 10.4444C13.5629 10.5657 13.5629 10.7622 13.4433 10.8836L13.3299 10.9985C13.2099 11.1198 13.0165 11.1196 12.8969 10.9983C12.7772 10.8772 12.7772 10.6804 12.8969 10.5591ZM11.4431 11.2441L11.4823 11.0865C11.5237 10.9202 11.6902 10.8194 11.8543 10.8614C12.0183 10.9032 12.1177 11.0722 12.0765 11.2384L12.0373 11.3958C11.9955 11.5625 11.8295 11.6631 11.6652 11.6211C11.5013 11.5793 11.4019 11.4103 11.4431 11.2441ZM10.3924 10.9409L10.2791 10.826C10.1596 10.7049 10.1596 10.5082 10.2791 10.3868C10.3987 10.2655 10.5927 10.2655 10.7122 10.3868L10.8255 10.5017C10.9449 10.6229 10.9451 10.8196 10.8255 10.9409C10.7065 11.062 10.5116 11.0622 10.3924 10.9409Z" fill="white"/>
<path d="M11.6768 9.27307C11.9055 9.47253 12.2435 9.47669 12.477 9.28572C12.7679 9.04692 12.7879 8.60783 12.5268 8.343C12.2819 8.09507 11.8853 8.09619 11.6419 8.343C11.3858 8.60265 11.3997 9.03147 11.6768 9.27307Z" fill="white"/>
<path d="M15.6453 13.2833C15.678 13.1786 15.6245 13.0657 15.523 13.0272C14.5813 12.67 13.9349 13.083 13.8154 13.114L13.8148 13.1142C13.8148 13.1142 13.8158 13.1045 13.7109 13.9895C13.7111 13.9893 13.7113 13.9891 13.7116 13.9891C14.263 13.7367 14.868 13.6894 15.4679 13.853C15.4729 13.837 15.5779 13.5001 15.6453 13.2833Z" fill="white"/>
<path d="M13.1801 8.20637C13.5403 7.93781 13.8251 7.56759 13.9921 7.14666C14.0554 6.98764 13.9793 6.80667 13.8224 6.74248C13.6654 6.6785 13.4872 6.75553 13.4239 6.91476C13.2914 7.24895 13.059 7.54049 12.7656 7.74297C12.9383 7.85901 13.0813 8.01639 13.1801 8.20637Z" fill="white"/>
<path d="M10.144 13.989C10.1442 13.989 10.1442 13.989 10.1444 13.9892L10.1443 13.9891C10.1444 13.9891 10.1444 13.9891 10.1445 13.9892C10.0326 13.0477 10.0431 13.1367 10.0408 13.1145C9.82528 13.0417 9.2266 12.6873 8.33229 13.0277C8.23122 13.0661 8.17819 13.1789 8.21072 13.2833C8.24533 13.3944 8.3006 13.5719 8.38824 13.8534C8.9877 13.6898 9.59249 13.7366 10.144 13.989Z" fill="white"/>
<path d="M13.1981 13.119C12.4244 12.7255 11.4871 12.6986 10.6583 13.119V13.119C10.6583 13.119 10.6583 13.119 10.6582 13.1191C10.6583 13.1193 10.7505 13.9001 10.7505 13.9001C10.7506 13.8999 10.7506 13.9 10.7506 13.8999V13.9C10.7507 13.8998 10.7507 13.8999 10.7507 13.8998H10.7509C11.4326 13.6373 12.3049 13.6057 13.1049 13.8998C13.1051 13.8998 13.1053 13.9001 13.1055 13.9001C13.1055 13.8987 13.1982 13.1219 13.1982 13.1191C13.1982 13.119 13.1982 13.119 13.1981 13.119V13.119Z" fill="white"/>
<path d="M13.6227 14.7385V14.7385C13.6223 14.7385 13.6221 14.7385 13.6219 14.7387L13.3203 17.2798H13.3204V17.2799H14.1761C14.3097 17.2799 14.4279 17.1921 14.4681 17.0629L15.2832 14.4459C14.333 14.1966 13.7371 14.7004 13.6227 14.7385Z" fill="white"/>
<path d="M13.0282 14.5371H13.028C13.0279 14.5369 13.0277 14.5369 13.0275 14.5369V14.5367C13.0275 14.5367 13.0275 14.5367 13.0274 14.5367V14.5367C13.0273 14.5365 13.0271 14.5366 13.0269 14.5365C12.5342 14.3659 11.8048 14.1143 10.8247 14.5364V14.5365C10.8247 14.5365 10.8247 14.5365 10.8247 14.5365V14.5366C10.8245 14.5366 10.8245 14.5366 10.8243 14.5366V14.5367C10.8243 14.5367 10.8243 14.5367 10.8242 14.5367C11.0351 16.3141 10.9655 15.7276 11.1496 17.2799H11.1497V17.28H12.7027V17.2799H12.7028C12.7036 17.2732 13.0283 14.5372 13.0283 14.5372H13.0282V14.5371Z" fill="white"/>
</svg>
