<svg width="24" height="24" viewBox="0 0 24 24" fill="none" xmlns="http://www.w3.org/2000/svg">
<rect width="24" height="24" rx="4" fill="#D1152E"/>
<path d="M9.28036 8.95799C9.16181 9.07823 9.16181 9.27313 9.28036 9.39335C9.33964 9.45348 9.41733 9.48353 9.49502 9.48353C9.57271 9.48353 9.65041 9.45346 9.70969 9.39335C10.1148 8.98255 10.1147 8.31414 9.70969 7.90336C9.54133 7.73262 9.54133 7.45481 9.70969 7.28408C9.82821 7.16384 9.82821 6.96894 9.70969 6.84872C9.59111 6.72847 9.39893 6.7285 9.28036 6.84872C8.87529 7.25953 8.87531 7.92793 9.28036 8.33872C9.44873 8.50946 9.44873 8.78725 9.28036 8.95799Z" fill="white"/>
<path d="M10.9249 8.95797C10.8063 9.0782 10.8063 9.27312 10.9249 9.39334C10.9842 9.45345 11.0618 9.48351 11.1396 9.48351C11.2172 9.48351 11.2949 9.45345 11.3542 9.39334C11.7593 8.98256 11.7593 8.31413 11.3542 7.90334C11.1858 7.7326 11.1858 7.45479 11.3542 7.28407C11.4728 7.16385 11.4728 6.96893 11.3542 6.84871C11.2357 6.72849 11.0434 6.72849 10.9249 6.84871C10.5198 7.25949 10.5198 7.92792 10.9249 8.3387C11.0932 8.50944 11.0932 8.78723 10.9249 8.95797Z" fill="white"/>
<path d="M12.5695 8.95797C12.4509 9.0782 12.4509 9.27312 12.5695 9.39334C12.6287 9.45345 12.7064 9.48351 12.7841 9.48351C12.8618 9.48351 12.9395 9.45345 12.9988 9.39334C13.4039 8.98256 13.4039 8.31413 12.9988 7.90334C12.8304 7.7326 12.8304 7.45479 12.9988 7.28407C13.1173 7.16385 13.1173 6.96893 12.9988 6.84871C12.8802 6.72849 12.688 6.72849 12.5695 6.84871C12.1643 7.25949 12.1643 7.92792 12.5695 8.3387C12.7378 8.50944 12.7378 8.78723 12.5695 8.95797Z" fill="white"/>
<path d="M14.9892 10.6653L15.7325 9.56153V9.5615L15.8029 9.61016C15.9413 9.70607 16.1302 9.66988 16.2248 9.52954C16.3193 9.38916 16.2837 9.19759 16.1452 9.1017C16.0466 9.03341 15.797 8.86054 15.5033 8.65714C15.3649 8.5613 15.176 8.59739 15.0814 8.73777C14.9869 8.87816 15.0224 9.06973 15.1609 9.1656L15.2312 9.2143L14.4883 10.3176C14.6714 10.3922 14.8463 10.5101 14.9892 10.6653Z" fill="white"/>
<path d="M14.1568 11.9374C14.3515 11.9044 14.5492 11.9089 14.7382 11.9514C14.9457 11.1402 14.1744 10.5446 13.4707 10.9714C13.764 11.2445 13.9989 11.5727 14.1568 11.9374Z" fill="white"/>
<path d="M13.5862 12.1511C13.2115 11.3213 12.3214 10.7449 11.2961 10.7449C9.21117 10.7449 7.45874 12.2336 7.28125 14.1443H12.8842C12.5978 13.4354 12.8919 12.5736 13.5862 12.1511Z" fill="white"/>
<path d="M17.046 11.2567C16.9844 11.1942 16.5437 10.7473 16.4964 10.6993C16.3778 10.5791 16.1856 10.5791 16.0671 10.6993C15.9485 10.8195 15.9485 11.0144 16.0671 11.1346L16.1273 11.1957L15.1953 12.1408C15.3699 12.2536 15.516 12.4024 15.6244 12.5763L16.5565 11.631L16.6168 11.692C16.7353 11.8123 16.9275 11.8123 17.0461 11.692C17.1647 11.5718 17.1647 11.3769 17.046 11.2567Z" fill="white"/>
<path d="M13.5908 14.1441H14.884C15.3008 13.7702 15.3638 13.1355 15.003 12.7697C15.0006 12.7672 14.9983 12.765 14.9959 12.7627C14.1691 11.945 12.8453 13.3076 13.5908 14.1441Z" fill="white"/>
<path d="M8.66473 16.9765C8.68604 17.1282 8.81415 17.2409 8.96526 17.2409H14.7989C14.95 17.2409 15.0781 17.1282 15.0994 16.9765L15.1665 16.499H8.59766L8.66473 16.9765Z" fill="white"/>
<path d="M16.8397 14.7598H6.92309C6.81132 14.7598 6.7207 14.8516 6.7207 14.965V15.4953C6.7207 15.7095 6.89195 15.8832 7.1032 15.8832H16.6596C16.8709 15.8832 17.0421 15.7095 17.0421 15.4953V14.965C17.0421 14.8516 16.9515 14.7598 16.8397 14.7598Z" fill="white"/>
</svg>
