<svg width="24" height="24" viewBox="0 0 24 24" fill="none" xmlns="http://www.w3.org/2000/svg">
<rect width="24" height="24" rx="4" fill="#D1152E"/>
<path d="M12.0262 8.06573C12.2339 8.79907 11.829 9.53121 11.1653 9.78164C10.3849 10.0762 9.51103 9.635 9.29436 8.81763L8.31498 9.08716C8.1451 12.6085 11.3931 15.8538 14.912 15.6841L15.7915 12.4879C14.894 12.2453 14.3226 11.3194 14.5544 10.3827C14.7871 9.4423 15.7577 8.85208 16.7184 9.11946L17.2678 7.12297C17.3334 6.88467 17.1144 6.66568 16.8761 6.73126L12.0262 8.06573ZM12.8066 9.27769C12.892 9.1237 13.0859 9.06804 13.2397 9.15323L13.6783 9.39641C13.8323 9.48158 13.888 9.67552 13.8026 9.8295C13.7183 9.98142 13.5261 10.0398 13.3695 9.95377L12.9309 9.7108C12.7771 9.6254 12.7214 9.43145 12.8066 9.27769ZM10.4611 11.2163H9.9596C9.78373 11.2163 9.64098 11.0738 9.64098 10.8976C9.64098 10.7218 9.78373 10.5791 9.9596 10.5791H10.4611C10.6369 10.5791 10.7797 10.7218 10.7797 10.8976C10.7797 11.0738 10.6369 11.2163 10.4611 11.2163ZM11.2055 12.1479C11.2055 11.5066 11.7274 10.985 12.3686 10.985C13.0097 10.985 13.5313 11.5066 13.5313 12.1479C13.5313 12.7891 13.0097 13.3107 12.3686 13.3107C11.7274 13.3107 11.2055 12.7891 11.2055 12.1479ZM13.9028 14.6342L13.4015 14.6185C13.2257 14.6132 13.0876 14.4662 13.0929 14.2903C13.0985 14.1143 13.2452 13.976 13.4213 13.9817L13.9226 13.9972C14.0984 14.0028 14.2365 14.1497 14.2312 14.3256C14.226 14.4879 14.098 14.6342 13.9028 14.6342ZM15.8996 8.03194L15.6245 8.45144C15.5282 8.59825 15.3311 8.64001 15.1836 8.54321C15.0364 8.44678 14.9952 8.24925 15.0916 8.10205L15.3667 7.68278C15.4631 7.53558 15.6606 7.49438 15.8078 7.5908C15.955 7.68744 15.996 7.88477 15.8996 8.03194Z" fill="white"/>
<path d="M14.9861 16.3185C11.0578 16.5362 7.46469 12.9336 7.68183 9.01426C7.68978 8.86576 7.56134 8.74388 7.40891 8.77318C7.21224 8.81283 7.32445 8.7902 6.95182 8.86536C6.8556 8.88491 6.78253 8.96243 6.77044 9.05844C6.20882 13.5079 10.4963 17.791 14.9419 17.2299C15.0379 17.2178 15.1154 17.1448 15.135 17.0486C15.2099 16.6773 15.1874 16.7887 15.2272 16.5915C15.2571 16.4426 15.1369 16.3104 14.9861 16.3185Z" fill="white"/>
<path d="M10.9334 9.18846C11.3055 9.05321 11.5339 8.64398 11.4148 8.23462L9.91016 8.6488C10.0221 9.08984 10.4965 9.34723 10.9334 9.18846Z" fill="white"/>
<path d="M15.1636 10.5789C15.0453 11.1554 15.3952 11.7228 15.9609 11.8738L16.5498 9.73365H16.5496C15.9231 9.55819 15.291 9.95771 15.1636 10.5789Z" fill="white"/>
<path d="M12.3697 11.6221C12.0798 11.6221 11.8438 11.8578 11.8438 12.1478C11.8438 12.4377 12.0798 12.6735 12.3697 12.6735C12.6594 12.6735 12.8951 12.4377 12.8951 12.1478C12.8951 11.8578 12.6594 11.6221 12.3697 11.6221Z" fill="white"/>
</svg>
