<svg width="24" height="24" viewBox="0 0 24 24" fill="none" xmlns="http://www.w3.org/2000/svg">
<rect width="24" height="24" rx="4" fill="#D1152E"/>
<path d="M8.32148 11.2096H15.6847C15.8846 10.6852 15.7005 10.0772 15.2076 9.75894C15.1043 9.69208 15.05 9.57051 15.0695 9.44876C15.1933 8.67529 14.5667 7.99049 13.786 8.04614C13.6216 8.05753 13.4768 7.93909 13.4559 7.77593C13.3785 7.17381 12.8617 6.71973 12.254 6.71973C11.5341 6.71973 10.9733 7.33958 11.048 8.0596C11.0734 8.30211 10.8205 8.47908 10.6006 8.36957C9.76698 7.95386 8.78952 8.60019 8.85135 9.53635C8.85818 9.64134 8.81139 9.74277 8.72711 9.80574C8.24881 10.1627 8.13913 10.7443 8.32148 11.2096ZM13.915 10.1432L14.0525 10.0056C14.1738 9.88441 14.3705 9.88422 14.4916 10.0056C14.613 10.1269 14.613 10.3236 14.4916 10.4449L14.3541 10.5824C14.2333 10.7032 14.0363 10.704 13.9148 10.5824C13.7936 10.4611 13.7936 10.2646 13.915 10.1432ZM12.8122 8.99882C12.8122 8.82738 12.9511 8.68824 13.1228 8.68824C13.2942 8.68824 13.4334 8.82738 13.4334 8.99882V9.19346C13.4334 9.3649 13.2942 9.50405 13.1228 9.50405C12.9511 9.50405 12.8122 9.3649 12.8122 9.19346V8.99882ZM9.96925 9.60093C10.0904 9.47961 10.2871 9.47961 10.4084 9.60093L10.5461 9.73845C10.6673 9.85979 10.6673 10.0565 10.5459 10.1778C10.4254 10.2988 10.2282 10.2993 10.1068 10.1778L9.96925 10.0401C9.8479 9.91878 9.8479 9.72227 9.96925 9.60093Z" fill="white"/>
<path d="M10.1777 16.7466V17.0727C10.1777 17.187 10.2704 17.2798 10.3848 17.2798H13.6149C13.7293 17.2798 13.8219 17.187 13.8219 17.0727V16.7466C13.6739 16.756 10.3167 16.7554 10.1777 16.7466Z" fill="white"/>
<path d="M7.97852 13.7453C7.97852 15.0625 9.05054 16.1312 10.3644 16.1312H13.6356C14.9494 16.1312 16.0215 15.0626 16.0215 13.7453V13.0935H7.97852V13.7453Z" fill="white"/>
<path d="M7.97852 12.0379V12.4723H16.0215V12.0379C16.0215 11.9235 15.9288 11.8308 15.8145 11.8308H8.18557C8.07121 11.8308 7.97852 11.9235 7.97852 12.0379Z" fill="white"/>
</svg>
