<svg width="24" height="24" viewBox="0 0 24 24" fill="none" xmlns="http://www.w3.org/2000/svg">
<rect width="24" height="24" rx="4" fill="#D1152E"/>
<path d="M7.83792 16.8308H8.69431C8.80867 16.8308 8.90137 16.7381 8.90137 16.6237V15.8818H7.63086V16.6237C7.63086 16.7381 7.72356 16.8308 7.83792 16.8308Z" fill="white"/>
<path d="M15.3067 16.8308H16.1631C16.2774 16.8308 16.3701 16.7381 16.3701 16.6237V15.8818H15.0996V16.6237C15.0996 16.7381 15.1923 16.8308 15.3067 16.8308Z" fill="white"/>
<path d="M17.0892 13.8762H6.91223C6.80663 13.8762 6.7207 13.9621 6.7207 14.0677V15.0689C6.7207 15.1745 6.80663 15.2604 6.91223 15.2604H17.0892C17.1948 15.2604 17.2807 15.1745 17.2807 15.0689V14.0677C17.2807 13.9621 17.1948 13.8762 17.0892 13.8762Z" fill="white"/>
<path d="M7.67104 10.916C7.57683 11.1264 7.52734 11.3562 7.52734 11.5937C7.52734 12.51 8.27255 13.2552 9.18878 13.2552H9.9344V10.9643C9.20052 10.9872 7.94409 10.9764 7.67104 10.916ZM8.18248 11.9623C8.18248 11.7907 8.32162 11.6517 8.49307 11.6517C8.66451 11.6517 8.80365 11.7907 8.80365 11.9623V12.0787C8.80365 12.2503 8.66451 12.3893 8.49307 12.3893C8.32162 12.3893 8.18248 12.2503 8.18248 12.0787V11.9623Z" fill="white"/>
<path d="M15.1024 11.5935C15.1024 11.0279 14.8245 10.5322 14.3891 10.229C13.8154 10.4076 13.2904 10.5487 12.6953 10.6665V13.255H13.4414C14.3577 13.255 15.1024 12.5141 15.1024 11.5935ZM13.8658 11.0459C13.8658 10.8742 14.005 10.7353 14.1764 10.7353C14.3479 10.7353 14.487 10.8742 14.487 11.0459V11.1622C14.487 11.3339 14.3479 11.4728 14.1764 11.4728C14.005 11.4728 13.8658 11.3339 13.8658 11.1622V11.0459ZM13.3223 12.3114V12.195C13.3223 12.0234 13.4614 11.8845 13.6329 11.8845C13.8044 11.8845 13.9435 12.0234 13.9435 12.195V12.3114C13.9435 12.4831 13.8044 12.622 13.6329 12.622C13.4614 12.622 13.3223 12.4831 13.3223 12.3114Z" fill="white"/>
<path d="M7.95854 10.3289C8.11688 10.3349 8.22971 10.3389 8.39254 10.3432C8.32694 9.75463 8.39448 9.12501 8.53913 8.55874C8.38757 8.54736 8.22917 8.53535 8.0631 8.52271C7.57954 8.48751 7.15733 8.83564 7.09718 9.31099C7.03088 9.83325 7.42187 10.3066 7.95854 10.3289Z" fill="white"/>
<path d="M9.01902 10.3541C9.33665 10.3558 9.64021 10.352 9.93296 10.3425C9.93296 10.1616 9.93296 8.94082 9.93296 8.65748C9.69983 8.64277 9.44763 8.62559 9.16976 8.60571C9.01635 9.15636 8.94193 9.78908 9.01902 10.3541Z" fill="white"/>
<path d="M13.5594 9.82568C13.4534 9.42639 13.3906 9.00556 13.3556 8.59058C13.1328 8.62516 12.9189 8.65187 12.6953 8.67257V10.0328C12.9815 9.97367 13.2702 9.90479 13.5594 9.82568Z" fill="white"/>
<path d="M14.1568 9.6515C14.4432 9.5628 14.7358 9.46577 15.0201 9.36988C14.8165 9.04525 14.7256 8.67091 14.7385 8.31885C14.4519 8.38179 14.2007 8.43543 13.9707 8.48098C14.001 8.86327 14.0583 9.27751 14.1568 9.6515Z" fill="white"/>
<path d="M16.3837 7.17541C15.843 7.30872 15.4408 7.60231 15.3652 8.23453C15.9634 8.15516 16.4316 7.94238 16.6241 7.45474C16.686 7.29802 16.5473 7.13508 16.3837 7.17541Z" fill="white"/>
<path d="M15.4492 8.85039C15.6868 9.43661 16.1481 9.61681 16.7105 9.60246C16.8792 9.59816 16.9706 9.40361 16.8686 9.26912C16.5546 8.85538 16.0444 8.77028 15.4492 8.85039Z" fill="white"/>
<path d="M11.8624 8.61684C11.4316 8.62583 11.1377 8.61361 10.7701 8.5988C10.6526 8.59406 10.5547 8.68807 10.5547 8.8057V13.2544H12.0737V8.82386C12.0737 8.70788 11.9784 8.61442 11.8624 8.61684Z" fill="white"/>
</svg>
