<svg width="24" height="24" viewBox="0 0 24 24" fill="none" xmlns="http://www.w3.org/2000/svg">
<rect width="24" height="24" rx="4" fill="#D1152E"/>
<path d="M16.8308 9.92729C16.7081 9.80451 16.5091 9.80451 16.3863 9.92729L14.5156 11.7982C14.6822 11.921 14.8346 12.0728 14.9596 12.2426L16.8308 10.3717C16.9533 10.2489 16.9533 10.05 16.8308 9.92729Z" fill="white"/>
<path d="M12.2311 12.4481L9.9095 14.7697C9.33501 15.3442 9.3347 16.274 9.9095 16.8488C10.484 17.4233 11.4141 17.4235 11.9888 16.8488L14.3104 14.5272C14.8836 13.9539 14.8836 13.0213 14.3104 12.4481C13.7322 11.8707 12.8004 11.8788 12.2311 12.4481ZM10.5946 15.1528C10.4721 15.03 10.4721 14.8311 10.5946 14.7083L10.7064 14.5967C10.8291 14.474 11.0281 14.474 11.1506 14.5967C11.2733 14.7195 11.2733 14.9182 11.1506 15.041L11.039 15.1528C10.9169 15.2748 10.7177 15.2759 10.5946 15.1528ZM11.5364 16.5154L11.4246 16.6272C11.3019 16.7499 11.1029 16.7497 10.9803 16.6272C10.8576 16.5045 10.8576 16.3055 10.9803 16.183L11.092 16.0711C11.2147 15.9484 11.4137 15.9484 11.5364 16.0711C11.6591 16.1939 11.6591 16.3929 11.5364 16.5154ZM12.2018 14.3598L12.0901 14.4717C11.9679 14.5939 11.7687 14.5947 11.6457 14.4717C11.523 14.349 11.523 14.1502 11.6457 14.0275L11.7575 13.9156C11.8803 13.7929 12.079 13.7929 12.2018 13.9156C12.3245 14.0383 12.3245 14.2374 12.2018 14.3598ZM13.9994 14.2543L13.8878 14.3661C13.7648 14.4887 13.5663 14.4887 13.4434 14.3661C13.3209 14.2434 13.3209 14.0444 13.4434 13.9217L13.5552 13.8101C13.6779 13.6873 13.8766 13.6873 13.9994 13.8101C14.1221 13.9326 14.1221 14.1316 13.9994 14.2543Z" fill="white"/>
<path d="M8.87841 11.6677L7.17001 13.3759C7.0475 13.4987 7.0475 13.6976 7.17001 13.8204C7.29303 13.943 7.49145 13.9429 7.61444 13.8204L9.32243 12.1122C9.15016 11.985 9.00066 11.8339 8.87841 11.6677Z" fill="white"/>
<path d="M11.5667 11.4624L13.3188 9.71052C13.3563 9.67303 13.3598 9.61293 13.3259 9.57212C12.9956 9.17384 12.9293 8.61899 13.1533 8.15476C13.1696 8.12103 13.1663 8.08123 13.1448 8.05059C12.901 7.70337 12.8404 7.25989 12.9794 6.8599C13.0027 6.79279 12.9553 6.72313 12.8843 6.72077C12.4907 6.70771 12.0988 6.85453 11.8124 7.14087L9.52886 9.4244C8.96694 9.98632 8.96694 10.9005 9.52886 11.4625C10.0913 12.0253 11.0037 12.0259 11.5667 11.4624ZM10.7815 8.94562C10.8448 8.78393 11.0272 8.70435 11.1886 8.7678L12.4198 9.25056C12.5815 9.31402 12.661 9.49623 12.5976 9.65772C12.5338 9.82048 12.3503 9.89858 12.1904 9.83551L10.9593 9.35276C10.7976 9.2893 10.7181 9.10708 10.7815 8.94562ZM9.71337 10.0137C9.77663 9.85226 9.95903 9.77268 10.1205 9.83594L11.3516 10.3189C11.5131 10.3821 11.5927 10.5644 11.5294 10.7261C11.4656 10.8887 11.282 10.9666 11.1223 10.9037L9.89097 10.4209C9.72949 10.3577 9.64991 10.1753 9.71337 10.0137Z" fill="white"/>
</svg>
