<svg width="54" height="54" viewBox="0 0 54 54" fill="none" xmlns="http://www.w3.org/2000/svg">
<circle cx="27" cy="27" r="27" fill="white"/>
<path d="M26.8188 27.7701C25.9777 27.7701 25.293 28.4645 25.293 29.3174C25.293 30.1705 25.9777 30.8647 26.8188 30.8647C27.66 30.8647 28.3446 30.1705 28.3446 29.3174C28.3446 28.4645 27.66 27.7701 26.8188 27.7701Z" fill="black"/>
<path d="M33.6843 24.6756H19.9521V33.9593H33.6843V24.6756ZM26.8182 32.412C25.1352 32.412 23.7666 31.024 23.7666 29.3174C23.7666 27.6107 25.1352 26.2229 26.8182 26.2229C28.5012 26.2229 29.8697 27.6107 29.8697 29.3174C29.8697 31.024 28.5012 32.412 26.8182 32.412Z" fill="black"/>
<path d="M33.6843 39.4263C33.6843 38.9988 33.343 38.6527 32.9213 38.6527H32.4538L33.4709 35.5067H20.1655L21.1826 38.6527H20.715C20.2934 38.6527 19.9521 38.9988 19.9521 39.4263C19.9521 39.854 20.2934 40.2 20.715 40.2H32.9213C33.343 40.2 33.6843 39.854 33.6843 39.4263Z" fill="black"/>
<path d="M33.6843 19.2087C33.6843 18.7809 33.343 18.4351 32.9213 18.4351H20.715C20.2934 18.4351 19.9521 18.7809 19.9521 19.2087C19.9521 19.6363 20.2934 19.9823 20.715 19.9823H21.1826L20.1655 23.1284H33.4709L32.4538 19.9823H32.9213C33.343 19.9823 33.6843 19.6363 33.6843 19.2087Z" fill="black"/>
<path d="M24.415 14.9887C24.0239 15.5388 23.8474 16.2349 23.869 16.8874H29.7677C29.7894 16.2349 29.6126 15.5388 29.2217 14.9887C28.0938 13.4038 25.5427 13.4038 24.415 14.9887Z" fill="black"/>
</svg>
