<svg width="54" height="54" viewBox="0 0 54 54" fill="none" xmlns="http://www.w3.org/2000/svg">
<circle cx="27" cy="27" r="27" fill="#D1152E"/>
<path d="M22.5788 33.846C22.5786 33.8461 22.5785 33.846 22.5785 33.846V33.8459C22.5779 33.8464 22.5774 33.8454 22.5774 33.8454V33.8455C22.3065 33.756 20.8061 32.4905 18.4277 33.1157L20.4649 39.6575C20.5655 39.9805 20.861 40.2001 21.195 40.2001H23.3331V40.2H23.3334C22.8432 36.0746 23.0081 37.462 22.5788 33.846Z" fill="white"/>
<path d="M30.7992 28.4731C30.7992 28.4731 30.7997 28.4731 30.7997 28.4726C32.0798 27.7575 33.4623 27.5207 34.838 27.7173C34.2387 24.3227 31.9355 22.1316 29.3144 21.2821C28.0362 22.4853 26.0399 22.3537 24.9352 21.1087C22.0649 21.7967 19.4387 24.0577 18.793 27.7173C20.1451 27.5233 21.5334 27.7463 22.8322 28.4726C25.3596 27.1415 28.3326 27.1682 30.7992 28.4731ZM29.2383 23.3982L29.5216 23.1115C29.8202 22.8081 30.3051 22.8081 30.6042 23.1115C30.9034 23.4147 30.9034 23.906 30.6042 24.2094L30.3209 24.4967C30.0209 24.7999 29.5373 24.7995 29.2383 24.4962C28.9391 24.1933 28.9391 23.7015 29.2383 23.3982ZM25.6038 25.1106L25.7019 24.7166C25.8054 24.3009 26.2215 24.0488 26.6319 24.1539C27.0418 24.2585 27.2904 24.6809 27.1872 25.0965L27.0893 25.49C26.9849 25.9067 26.5697 26.1581 26.1592 26.0532C25.7493 25.9487 25.5008 25.5263 25.6038 25.1106ZM22.977 24.3527L22.6937 24.0654C22.3952 23.7626 22.3952 23.2709 22.6937 22.9675C22.9929 22.6641 23.4778 22.6641 23.7765 22.9675L24.0598 23.2548C24.3584 23.5577 24.3588 24.0494 24.0598 24.3527C23.7623 24.6555 23.2751 24.6559 22.977 24.3527Z" fill="white"/>
<path d="M26.1921 20.1834C26.7637 20.6821 27.6088 20.6925 28.1924 20.215C28.9197 19.618 28.9699 18.5203 28.3169 17.8582C27.7048 17.2384 26.7131 17.2412 26.1047 17.8582C25.4645 18.5074 25.4992 19.5794 26.1921 20.1834Z" fill="white"/>
<path d="M36.1104 30.2087C36.192 29.9469 36.0582 29.6647 35.8047 29.5685C33.4504 28.6755 31.8343 29.708 31.5355 29.7854L31.534 29.7859C31.534 29.7859 31.5366 29.7617 31.2744 31.9742C31.2749 31.9736 31.2754 31.9731 31.276 31.9731C32.6547 31.3422 34.1671 31.2241 35.6669 31.6331C35.6793 31.593 35.9417 30.7507 36.1104 30.2087Z" fill="white"/>
<path d="M29.9493 17.516C30.8498 16.8446 31.5618 15.919 31.9793 14.8667C32.1376 14.4692 31.9472 14.0167 31.5551 13.8563C31.1626 13.6963 30.717 13.8889 30.5588 14.287C30.2274 15.1224 29.6465 15.8513 28.9131 16.3575C29.3448 16.6476 29.7023 17.041 29.9493 17.516Z" fill="white"/>
<path d="M22.356 31.9728C22.3566 31.9728 22.3566 31.9728 22.3571 31.9732L22.3569 31.973C22.3572 31.973 22.3571 31.973 22.3573 31.9731C22.0776 29.6195 22.1039 29.8421 22.098 29.7866C21.5593 29.6046 20.0626 28.7185 17.8268 29.5694C17.5742 29.6655 17.4416 29.9474 17.5229 30.2084C17.6094 30.4863 17.7476 30.93 17.9667 31.6338C19.4653 31.2248 20.9773 31.3418 22.356 31.9728Z" fill="white"/>
<path d="M29.9914 29.7978C28.057 28.8142 25.7138 28.747 23.642 29.7978V29.7979C23.6418 29.7979 23.6417 29.7979 23.6416 29.798C23.6417 29.7985 23.8724 31.7506 23.8724 31.7506C23.8726 31.7502 23.8726 31.7503 23.8726 31.7502V31.7503C23.873 31.75 23.8728 31.7501 23.873 31.75H23.8734C25.5776 31.0936 27.7584 31.0147 29.7584 31.75C29.7588 31.75 29.7594 31.7506 29.7599 31.7506C29.7599 31.7471 29.9916 29.8051 29.9916 29.798C29.9915 29.7979 29.9915 29.7979 29.9914 29.7979V29.7978Z" fill="white"/>
<path d="M31.0539 33.8465V33.8463C31.0529 33.8463 31.0523 33.8463 31.0518 33.8468L30.2979 40.1997H30.2981V40.2H32.4373C32.7713 40.2 33.0669 39.9804 33.1674 39.6575L35.2051 33.1151C32.8295 32.4917 31.3398 33.7513 31.0539 33.8465Z" fill="white"/>
<path d="M29.5716 33.3427H29.5711C29.5706 33.3422 29.5701 33.3422 29.5698 33.3422V33.3419C29.5696 33.3419 29.5696 33.3419 29.5695 33.3419V33.3417C29.5692 33.3414 29.5687 33.3415 29.5682 33.3414C28.3365 32.9149 26.513 32.2857 24.0628 33.3411V33.3413C24.0627 33.3413 24.0626 33.3413 24.0626 33.3414V33.3416C24.0622 33.3416 24.0622 33.3416 24.0618 33.3416V33.3419C24.0616 33.3419 24.0616 33.3419 24.0615 33.3419C24.5887 37.7853 24.4148 36.3191 24.8749 40.1999H24.8752V40.2001H28.7577V40.1999H28.758C28.7599 40.1829 29.5718 33.3429 29.5718 33.3429H29.5716V33.3427Z" fill="white"/>
</svg>
