<svg width="54" height="54" viewBox="0 0 54 54" fill="none" xmlns="http://www.w3.org/2000/svg">
<circle cx="27" cy="27" r="27" fill="#D1152E"/>
<path d="M33.1894 15.3469C33.6226 15.3469 33.9628 15.0065 33.9628 14.5734C33.9628 14.1402 33.6226 13.8 33.1894 13.8H30.0957C29.7244 13.8 29.4151 14.0628 29.3377 14.4187L28.8428 16.9453H30.4205L30.7299 15.3469H33.1894Z" fill="white"/>
<path d="M20.4127 26.0874C20.6293 27.2165 20.9076 28.6087 21.3098 30.3103C21.4801 31.0374 21.573 31.8108 21.5884 32.615C21.6037 33.404 21.4338 34.5487 21.217 35.5078H32.7878C32.5711 34.5487 32.401 33.404 32.4163 32.615C32.4319 31.8108 32.5246 31.0374 32.6949 30.3103C33.0971 28.6087 33.3754 27.2165 33.592 26.0874C33.7777 25.0973 33.8396 24.1228 33.8087 23.1328H27.3272L28.1935 23.9992C28.4874 24.3085 28.4874 24.788 28.1935 25.0973L25.9968 27.2784C25.8577 27.4331 25.6566 27.5104 25.4554 27.5104C25.2544 27.5104 25.0533 27.4331 24.9142 27.2784L22.7175 25.0973C22.4236 24.788 22.4236 24.3085 22.7175 23.9992L23.5838 23.1328H20.196C20.1652 24.1228 20.227 25.0973 20.4127 26.0874ZM24.6819 30.0937C24.6819 29.6605 25.0224 29.3203 25.4554 29.3203H28.5492C28.9824 29.3203 29.3226 29.6605 29.3226 30.0937V33.1874C29.3226 33.6205 28.9824 33.961 28.5492 33.961H25.4554C25.0224 33.961 24.6819 33.6205 24.6819 33.1874V30.0937Z" fill="white"/>
<path d="M25.4548 25.6388L26.5532 24.5405L25.4548 23.4577L24.3564 24.5405L25.4548 25.6388Z" fill="white"/>
<path d="M26.2285 30.8672H27.7753V32.414H26.2285V30.8672Z" fill="white"/>
<path d="M20.1802 39.8752C20.3349 40.0762 20.567 40.2 20.8143 40.2H33.1894C33.4368 40.2 33.6689 40.0762 33.8236 39.8752C33.9628 39.6742 34.0093 39.411 33.9164 39.179L33.2358 37.0547H20.768L20.0874 39.179C19.9945 39.411 20.0409 39.6742 20.1802 39.8752Z" fill="white"/>
<path d="M33.6688 21.586C33.4522 20.1474 33.0036 18.7242 32.3383 17.3784C32.1993 17.1155 31.9363 16.9453 31.6423 16.9453H30.4203L29.4922 21.586H33.6688Z" fill="white"/>
<path d="M21.6652 17.3784C21 18.7242 20.5515 20.1474 20.335 21.586H27.9146L28.8427 16.9453H22.3612C22.0674 16.9453 21.8045 17.1155 21.6652 17.3784Z" fill="white"/>
</svg>
