<svg width="54" height="54" viewBox="0 0 54 54" fill="none" xmlns="http://www.w3.org/2000/svg">
<circle cx="27" cy="27" r="27" fill="#D1152E"/>
<path d="M20.1999 19.3959C19.9036 19.6965 19.9036 20.1837 20.1999 20.4843C20.3481 20.6346 20.5423 20.7097 20.7366 20.7097C20.9308 20.7097 21.1251 20.6346 21.2733 20.4843C22.2859 19.4573 22.2858 17.7863 21.2733 16.7593C20.8523 16.3325 20.8523 15.6379 21.2733 15.2111C21.5695 14.9105 21.5695 14.4233 21.2733 14.1227C20.9768 13.8221 20.4964 13.8222 20.1999 14.1227C19.1872 15.1497 19.1873 16.8207 20.1999 17.8477C20.6209 18.2746 20.6209 18.969 20.1999 19.3959Z" fill="white"/>
<path d="M24.3103 19.3959C24.0139 19.6964 24.0139 20.1837 24.3103 20.4843C24.4585 20.6345 24.6527 20.7097 24.8469 20.7097C25.0411 20.7097 25.2354 20.6345 25.3836 20.4843C26.3963 19.4573 26.3963 17.7862 25.3836 16.7593C24.9626 16.3324 24.9626 15.6379 25.3836 15.2111C25.68 14.9105 25.68 14.4232 25.3836 14.1227C25.0872 13.8221 24.6066 13.8221 24.3103 14.1227C23.2976 15.1497 23.2976 16.8207 24.3103 17.8477C24.7311 18.2745 24.7311 18.969 24.3103 19.3959Z" fill="white"/>
<path d="M28.4207 19.3959C28.1243 19.6964 28.1243 20.1837 28.4207 20.4843C28.5689 20.6345 28.7631 20.7097 28.9574 20.7097C29.1517 20.7097 29.3458 20.6345 29.494 20.4843C30.5068 19.4573 30.5068 17.7862 29.494 16.7593C29.0731 16.3324 29.0731 15.6379 29.494 15.2111C29.7904 14.9105 29.7904 14.4232 29.494 14.1227C29.1976 13.8221 28.7171 13.8221 28.4207 14.1227C27.4079 15.1497 27.4079 16.8207 28.4207 17.8477C28.8416 18.2745 28.8416 18.969 28.4207 19.3959Z" fill="white"/>
<path d="M34.469 23.6636L36.3274 20.9042V20.9041L36.5032 21.0258C36.8494 21.2655 37.3216 21.1751 37.558 20.8242C37.7943 20.4733 37.7054 19.9943 37.3592 19.7546C37.1127 19.5839 36.4886 19.1517 35.7543 18.6432C35.4082 18.4036 34.936 18.4938 34.6996 18.8448C34.4632 19.1958 34.5522 19.6747 34.8984 19.9144L35.0742 20.0361L33.2168 22.7945C33.6746 22.9809 34.1118 23.2755 34.469 23.6636Z" fill="white"/>
<path d="M32.392 26.844C32.8788 26.7614 33.373 26.7727 33.8456 26.8789C34.3644 24.851 32.436 23.362 30.6768 24.429C31.41 25.1118 31.9974 25.9322 32.392 26.844Z" fill="white"/>
<path d="M30.9655 27.378C30.0288 25.3033 27.8034 23.8624 25.2402 23.8624C20.0279 23.8624 15.6469 27.5842 15.2031 32.3609H29.2104C28.4946 30.5886 29.2297 28.4341 30.9655 27.378Z" fill="white"/>
<path d="M39.6112 25.1423C39.457 24.9859 38.3554 23.8687 38.2371 23.7487C37.9407 23.4483 37.4602 23.4483 37.1638 23.7487C36.8674 24.0493 36.8674 24.5367 37.1638 24.8371L37.3143 24.9898L34.9844 27.3525C35.4208 27.6346 35.786 28.0066 36.0571 28.4412L38.3875 26.0779L38.5381 26.2306C38.8345 26.5312 39.3149 26.5312 39.6113 26.2306C39.9077 25.9301 39.9077 25.4428 39.6112 25.1423Z" fill="white"/>
<path d="M30.976 32.3611H34.209C35.2511 31.4262 35.4084 29.8396 34.5065 28.9249C34.5005 28.9188 34.4949 28.9132 34.4889 28.9075C32.4219 26.8634 29.1124 30.2699 30.976 32.3611Z" fill="white"/>
<path d="M18.6589 39.4416C18.7122 39.8209 19.0324 40.1027 19.4102 40.1027H33.9943C34.3721 40.1027 34.6924 39.8209 34.7456 39.4416L34.9133 38.248H18.4912L18.6589 39.4416Z" fill="white"/>
<path d="M39.0974 33.9H14.3058C14.0263 33.9 13.7998 34.1297 13.7998 34.4131V35.7389C13.7998 36.2745 14.2279 36.7086 14.756 36.7086H38.6471C39.1752 36.7086 39.6033 36.2745 39.6033 35.7389V34.4131C39.6033 34.1297 39.3768 33.9 39.0974 33.9Z" fill="white"/>
</svg>
