<svg width="54" height="54" viewBox="0 0 54 54" fill="none" xmlns="http://www.w3.org/2000/svg">
<circle cx="27" cy="27" r="27" fill="#D1152E"/>
<path d="M27.0666 17.1656C27.5857 18.999 26.5734 20.8293 24.9143 21.4554C22.9632 22.1917 20.7786 21.0888 20.2369 19.0453L17.7884 19.7192C17.3637 28.5224 25.4837 36.6359 34.2809 36.2116L36.4796 28.2211C34.2359 27.6146 32.8075 25.2997 33.387 22.958C33.9687 20.607 36.3953 19.1315 38.7969 19.7999L40.1706 14.8087C40.3345 14.213 39.7871 13.6655 39.1913 13.8294L27.0666 17.1656ZM29.0175 20.1955C29.231 19.8105 29.7158 19.6714 30.1002 19.8844L31.1967 20.4923C31.5817 20.7052 31.7209 21.1901 31.5074 21.575C31.2967 21.9548 30.8162 22.1009 30.4247 21.8857L29.3282 21.2783C28.9437 21.0648 28.8045 20.5799 29.0175 20.1955ZM23.1536 25.042H21.9C21.4603 25.042 21.1034 24.6857 21.1034 24.2454C21.1034 23.8057 21.4603 23.449 21.9 23.449H23.1536C23.5933 23.449 23.9502 23.8057 23.9502 24.2454C23.9502 24.6857 23.5933 25.042 23.1536 25.042ZM25.0148 27.3709C25.0148 25.7678 26.3195 24.4637 27.9225 24.4637C29.5251 24.4637 30.8293 25.7678 30.8293 27.3709C30.8293 28.974 29.5251 30.2782 27.9225 30.2782C26.3195 30.2782 25.0148 28.974 25.0148 27.3709ZM31.758 33.5868L30.5048 33.5476C30.0651 33.5342 29.72 33.1668 29.7332 32.7271C29.7471 32.287 30.114 31.9412 30.5543 31.9556L31.8074 31.9944C32.2471 32.0082 32.5922 32.3756 32.5789 32.8153C32.5659 33.2209 32.2459 33.5868 31.758 33.5868ZM36.75 17.0811L36.0623 18.1299C35.8215 18.4969 35.3288 18.6013 34.9599 18.3593C34.5919 18.1182 34.4889 17.6244 34.73 17.2564L35.4176 16.2082C35.6587 15.8402 36.1525 15.7372 36.5205 15.9783C36.8886 16.2199 36.9909 16.7132 36.75 17.0811Z" fill="white"/>
<path d="M34.4633 37.7975C24.6425 38.3416 15.6598 29.3352 16.2026 19.5368C16.2225 19.1655 15.9014 18.8609 15.5203 18.9341C15.0287 19.0332 15.3092 18.9767 14.3776 19.1646C14.1371 19.2134 13.9544 19.4072 13.9241 19.6473C12.5201 30.771 23.2389 41.4787 34.3528 40.0759C34.5928 40.0457 34.7866 39.8631 34.8355 39.6226C35.0227 38.6944 34.9666 38.9729 35.0659 38.4798C35.1408 38.1077 34.8403 37.7772 34.4633 37.7975Z" fill="white"/>
<path d="M24.3285 19.9724C25.2589 19.6342 25.83 18.6112 25.532 17.5878L21.7705 18.6232C22.0505 19.7258 23.2364 20.3693 24.3285 19.9724Z" fill="white"/>
<path d="M34.9089 23.4486C34.6132 24.8899 35.4879 26.3084 36.9021 26.686L38.3745 21.3355H38.374C36.8078 20.8969 35.2274 21.8957 34.9089 23.4486Z" fill="white"/>
<path d="M27.9223 26.0567C27.1975 26.0567 26.6074 26.646 26.6074 27.3709C26.6074 28.0957 27.1975 28.6852 27.9223 28.6852C28.6465 28.6852 29.2359 28.0957 29.2359 27.3709C29.2359 26.6461 28.6465 26.0567 27.9223 26.0567Z" fill="white"/>
</svg>
