<svg width="54" height="54" viewBox="0 0 54 54" fill="none" xmlns="http://www.w3.org/2000/svg">
<circle cx="27" cy="27" r="27" fill="white"/>
<path d="M17.7988 25.0247H36.2069C36.7067 23.7135 36.2465 22.1936 35.0142 21.398C34.756 21.2309 34.6202 20.927 34.669 20.6226C34.9784 18.6889 33.4118 16.9769 31.46 17.116C31.049 17.1445 30.6872 16.8484 30.6349 16.4405C30.4414 14.9352 29.1493 13.8 27.63 13.8C25.8305 13.8 24.4284 15.3496 24.6152 17.1497C24.6787 17.756 24.0463 18.1984 23.4966 17.9246C21.4126 16.8853 18.9689 18.5012 19.1235 20.8415C19.1406 21.104 19.0236 21.3576 18.8129 21.515C17.6171 22.4073 17.3429 23.8614 17.7988 25.0247ZM31.7826 22.3587L32.1263 22.0146C32.4296 21.7117 32.9214 21.7112 33.2242 22.0146C33.5275 22.3178 33.5275 22.8096 33.2242 23.1129L32.8805 23.4567C32.5784 23.7588 32.086 23.7607 31.782 23.4567C31.4792 23.1534 31.4792 22.6621 31.7826 22.3587ZM29.0256 19.4977C29.0256 19.0691 29.3729 18.7213 29.802 18.7213C30.2306 18.7213 30.5785 19.0691 30.5785 19.4977V19.9843C30.5785 20.4129 30.2306 20.7608 29.802 20.7608C29.3729 20.7608 29.0256 20.4129 29.0256 19.9843V19.4977ZM21.9182 21.003C22.2211 20.6997 22.7129 20.6997 23.0162 21.003L23.3604 21.3468C23.6633 21.6501 23.6633 22.1419 23.3599 22.4453C23.0586 22.7475 22.5656 22.7489 22.262 22.4453L21.9182 22.101C21.6149 21.7976 21.6149 21.3063 21.9182 21.003Z" fill="black"/>
<path d="M22.4443 38.8671V39.6823C22.4443 39.9682 22.6761 40.2 22.9619 40.2H31.0372C31.3231 40.2 31.5549 39.9682 31.5549 39.6823V38.8671C31.1848 38.8906 22.7917 38.8891 22.4443 38.8671Z" fill="black"/>
<path d="M16.9463 31.3638C16.9463 34.6568 19.6263 37.3286 22.9111 37.3286H31.089C34.3735 37.3286 37.0538 34.6571 37.0538 31.3638V29.7343H16.9463V31.3638Z" fill="black"/>
<path d="M16.9463 27.0955V28.1815H37.0538V27.0955C37.0538 26.8095 36.822 26.5778 36.5361 26.5778H17.4639C17.178 26.5778 16.9463 26.8095 16.9463 27.0955Z" fill="black"/>
</svg>
