<svg width="54" height="54" viewBox="0 0 54 54" fill="none" xmlns="http://www.w3.org/2000/svg">
<circle cx="27" cy="27" r="27" fill="white"/>
<path d="M16.5958 39.0767H18.7368C19.0227 39.0767 19.2544 38.845 19.2544 38.559V36.7043H16.0781V38.559C16.0781 38.845 16.3099 39.0767 16.5958 39.0767Z" fill="black"/>
<path d="M35.2628 39.0767H37.4037C37.6897 39.0767 37.9214 38.845 37.9214 38.559V36.7043H34.7451V38.559C34.7451 38.845 34.9768 39.0767 35.2628 39.0767Z" fill="black"/>
<path d="M39.721 31.691H14.2786C14.0146 31.691 13.7998 31.9058 13.7998 32.1698V34.6727C13.7998 34.9367 14.0146 35.1515 14.2786 35.1515H39.721C39.985 35.1515 40.1998 34.9367 40.1998 34.6727V32.1698C40.1998 31.9058 39.985 31.691 39.721 31.691Z" fill="black"/>
<path d="M16.1747 24.29C15.9391 24.816 15.8154 25.3906 15.8154 25.9843C15.8154 28.2749 17.6784 30.1379 19.969 30.1379H21.8331V24.4106C19.9984 24.468 16.8573 24.4411 16.1747 24.29ZM17.4533 26.9058C17.4533 26.4767 17.8011 26.1293 18.2297 26.1293C18.6583 26.1293 19.0062 26.4767 19.0062 26.9058V27.1967C19.0062 27.6258 18.6583 27.9732 18.2297 27.9732C17.8011 27.9732 17.4533 27.6258 17.4533 27.1967V26.9058Z" fill="black"/>
<path d="M34.7541 25.9845C34.7541 24.5705 34.0594 23.3311 32.9708 22.5732C31.5366 23.0196 30.2241 23.3724 28.7363 23.667V30.1381H30.6015C32.8923 30.1381 34.7541 28.2859 34.7541 25.9845ZM31.6626 24.6153C31.6626 24.1862 32.0105 23.8388 32.4392 23.8388C32.8677 23.8388 33.2156 24.1862 33.2156 24.6153V24.9062C33.2156 25.3353 32.8677 25.6827 32.4392 25.6827C32.0105 25.6827 31.6626 25.3353 31.6626 24.9062V24.6153ZM30.3038 27.7791V27.4883C30.3038 27.0591 30.6516 26.7119 31.0803 26.7119C31.5089 26.7119 31.8568 27.0591 31.8568 27.4883V27.7791C31.8568 28.2084 31.5089 28.5557 31.0803 28.5557C30.6516 28.5557 30.3038 28.2084 30.3038 27.7791Z" fill="black"/>
<path d="M16.8954 22.8237C17.2912 22.8387 17.5733 22.8486 17.9804 22.8593C17.8164 21.388 17.9852 19.8139 18.3469 18.3983C17.9679 18.3698 17.5719 18.3398 17.1568 18.3082C15.9479 18.2202 14.8923 19.0905 14.742 20.2789C14.5762 21.5845 15.5537 22.768 16.8954 22.8237Z" fill="black"/>
<path d="M19.5485 22.8858C20.3426 22.8899 21.1015 22.8805 21.8334 22.8568C21.8334 22.4045 21.8334 19.3525 21.8334 18.6442C21.2505 18.6074 20.62 18.5645 19.9254 18.5148C19.5418 19.8914 19.3558 21.4732 19.5485 22.8858Z" fill="black"/>
<path d="M30.8966 21.5647C30.6315 20.5665 30.4746 19.5144 30.3872 18.4769C29.8301 18.5634 29.2954 18.6302 28.7363 18.6819V22.0824C29.4519 21.9347 30.1736 21.7625 30.8966 21.5647Z" fill="black"/>
<path d="M32.3882 21.1289C33.1041 20.9071 33.8357 20.6645 34.5463 20.4248C34.0373 19.6132 33.8102 18.6774 33.8423 17.7972C33.1259 17.9546 32.4979 18.0887 31.9229 18.2026C31.9986 19.1583 32.1419 20.1939 32.3882 21.1289Z" fill="black"/>
<path d="M37.9602 14.9388C36.6084 15.272 35.6031 16.006 35.4141 17.5866C36.9095 17.3881 38.08 16.8562 38.5613 15.6371C38.716 15.2453 38.3692 14.8379 37.9602 14.9388Z" fill="black"/>
<path d="M35.6211 19.1261C36.2151 20.5917 37.3682 21.0421 38.7743 21.0063C39.1961 20.9955 39.4246 20.5091 39.1695 20.1729C38.3846 19.1386 37.1091 18.9258 35.6211 19.1261Z" fill="black"/>
<path d="M26.6551 18.5439C25.578 18.5663 24.8433 18.5358 23.9243 18.4988C23.6305 18.4869 23.3857 18.7219 23.3857 19.016V30.1378H27.1833V19.0614C27.1833 18.7715 26.9451 18.5378 26.6551 18.5439Z" fill="black"/>
</svg>
