<svg width="54" height="54" viewBox="0 0 54 54" fill="none" xmlns="http://www.w3.org/2000/svg">
<circle cx="27" cy="27" r="27" fill="white"/>
<path d="M39.075 21.8188C38.7682 21.5118 38.2707 21.5118 37.9639 21.8188L33.2871 26.496C33.7036 26.8031 34.0846 27.1825 34.3971 27.6071L39.075 22.9299C39.3813 22.6229 39.3813 22.1255 39.075 21.8188Z" fill="black"/>
<path d="M27.5739 28.1207L21.7698 33.9249C20.3336 35.361 20.3328 37.6857 21.7698 39.1227C23.206 40.5588 25.5314 40.5593 26.968 39.1227L32.7721 33.3185C34.2052 31.8853 34.2052 29.5537 32.7721 28.1207C31.3266 26.6773 28.9972 26.6975 27.5739 28.1207ZM23.4825 34.8825C23.1762 34.5756 23.1762 34.0782 23.4825 33.7714L23.7621 33.4924C24.0689 33.1855 24.5663 33.1855 24.8727 33.4924C25.1794 33.7992 25.1794 34.2961 24.8727 34.603L24.5936 34.8825C24.2884 35.1876 23.7903 35.1903 23.4825 34.8825ZM25.8371 38.289L25.5575 38.5686C25.2509 38.8753 24.7533 38.8749 24.4469 38.5686C24.1402 38.2618 24.1402 37.7644 24.4469 37.458L24.726 37.1784C25.0329 36.8716 25.5303 36.8716 25.8371 37.1784C26.144 37.4854 26.144 37.9828 25.8371 38.289ZM27.5005 32.9002L27.2214 33.1798C26.9159 33.4853 26.4178 33.4872 26.1104 33.1798C25.8036 32.8729 25.8036 32.376 26.1104 32.0693L26.39 31.7896C26.6968 31.4829 27.1937 31.4829 27.5005 31.7896C27.8074 32.0964 27.8074 32.5939 27.5005 32.9002ZM31.9946 32.6363L31.7156 32.9159C31.408 33.2224 30.9119 33.2222 30.6045 32.9159C30.2982 32.609 30.2982 32.1116 30.6045 31.8048L30.8841 31.5257C31.1909 31.2189 31.6877 31.2189 31.9946 31.5257C32.3014 31.8321 32.3014 32.3294 31.9946 32.6363Z" fill="black"/>
<path d="M19.196 26.17L14.925 30.4405C14.6187 30.7474 14.6187 31.2448 14.925 31.5516C15.2326 31.8581 15.7286 31.858 16.0361 31.5516L20.3061 27.2811C19.8754 26.9632 19.5016 26.5853 19.196 26.17Z" fill="black"/>
<path d="M25.9148 25.6561L30.2951 21.2763C30.3889 21.1826 30.3975 21.0324 30.3129 20.9304C29.4871 19.9347 29.3212 18.5475 29.8814 17.387C29.9221 17.3026 29.9138 17.2031 29.86 17.1265C29.2507 16.2585 29.0991 15.1498 29.4466 14.1498C29.5048 13.982 29.3863 13.8079 29.2088 13.802C28.2249 13.7693 27.245 14.1364 26.5291 14.8522L20.8202 20.5611C19.4154 21.9659 19.4154 24.2514 20.8202 25.6562C22.2262 27.0633 24.5073 27.0648 25.9148 25.6561ZM23.9518 19.3641C24.11 18.9599 24.566 18.7609 24.9697 18.9196L28.0474 20.1264C28.4517 20.2851 28.6505 20.7406 28.492 21.1443C28.3325 21.5513 27.8738 21.7465 27.4741 21.5888L24.3963 20.382C23.9921 20.2233 23.7932 19.7678 23.9518 19.3641ZM21.2815 22.0344C21.4396 21.6307 21.8956 21.4317 22.2993 21.5899L25.3771 22.7973C25.7807 22.9554 25.9797 23.411 25.8215 23.8152C25.6619 24.2219 25.2029 24.4166 24.8037 24.2592L21.7255 23.0522C21.3218 22.8942 21.1228 22.4382 21.2815 22.0344Z" fill="black"/>
</svg>
