<svg width="14" height="14" viewBox="0 0 14 14" fill="none" xmlns="http://www.w3.org/2000/svg">
<g clip-path="url(#clip0)">
<path d="M13.9115 2.036C13.8349 1.94021 13.7189 1.88446 13.5962 1.88446H2.84791L2.54734 0.582074C2.50504 0.398844 2.34188 0.269043 2.15384 0.269043H0.40384C0.180824 0.269043 0 0.449867 0 0.67291C0 0.895953 0.180824 1.07675 0.40384 1.07675H1.83258L3.87275 9.91756C3.91502 10.1008 4.07821 10.2306 4.26625 10.2306H12.3577C12.5807 10.2306 12.7615 10.0498 12.7615 9.82675C12.7615 9.60371 12.5807 9.42291 12.3577 9.42291H4.58754L4.27692 8.07675H12.3846C12.5735 8.07675 12.7372 7.94583 12.7786 7.76156L13.9902 2.37695C14.0171 2.25723 13.9882 2.13181 13.9115 2.036Z" fill="#BEBEBE"/>
<path d="M5.92218 10.769C5.1057 10.769 4.44141 11.4333 4.44141 12.2498C4.44141 13.0663 5.10567 13.7306 5.92218 13.7306C6.73867 13.7306 7.40296 13.0663 7.40296 12.2498C7.40296 11.4333 6.7387 10.769 5.92218 10.769Z" fill="#BEBEBE"/>
<path d="M10.7698 10.769C9.95335 10.769 9.28906 11.4333 9.28906 12.2498C9.28906 13.0663 9.95332 13.7306 10.7698 13.7306C11.5863 13.7306 12.2506 13.0663 12.2506 12.2498C12.2506 11.4333 11.5863 10.769 10.7698 10.769Z" fill="#BEBEBE"/>
</g>
<defs>
<clipPath id="clip0">
<rect width="14" height="14" fill="white"/>
</clipPath>
</defs>
</svg>
