<svg width="14" height="14" viewBox="0 0 14 14" fill="none" xmlns="http://www.w3.org/2000/svg">
<path d="M11.5938 1.75H9.1875V1.3125C9.1875 0.588793 8.59871 0 7.875 0H6.125C5.40129 0 4.8125 0.588793 4.8125 1.3125V1.75H2.40625C1.80316 1.75 1.3125 2.24066 1.3125 2.84375V4.375C1.3125 4.61661 1.50839 4.8125 1.75 4.8125H1.98909L2.36707 12.7499C2.40045 13.4509 2.97631 14 3.67806 14H10.3219C11.0237 14 11.5996 13.4509 11.6329 12.7499L12.0109 4.8125H12.25C12.4916 4.8125 12.6875 4.61661 12.6875 4.375V2.84375C12.6875 2.24066 12.1968 1.75 11.5938 1.75ZM5.6875 1.3125C5.6875 1.07127 5.88377 0.875 6.125 0.875H7.875C8.11623 0.875 8.3125 1.07127 8.3125 1.3125V1.75H5.6875V1.3125ZM2.1875 2.84375C2.1875 2.72314 2.28564 2.625 2.40625 2.625H11.5938C11.7144 2.625 11.8125 2.72314 11.8125 2.84375V3.9375C11.6777 3.9375 2.74621 3.9375 2.1875 3.9375V2.84375ZM10.7589 12.7083C10.7478 12.942 10.5558 13.125 10.3219 13.125H3.67806C3.44414 13.125 3.25218 12.942 3.24108 12.7083L2.86508 4.8125H11.1349L10.7589 12.7083Z" fill="#636363"/>
<path d="M7 12.25C7.24161 12.25 7.4375 12.0541 7.4375 11.8125V6.125C7.4375 5.88339 7.24161 5.6875 7 5.6875C6.75839 5.6875 6.5625 5.88339 6.5625 6.125V11.8125C6.5625 12.0541 6.75836 12.25 7 12.25Z" fill="#636363"/>
<path d="M9.1875 12.25C9.42911 12.25 9.625 12.0541 9.625 11.8125V6.125C9.625 5.88339 9.42911 5.6875 9.1875 5.6875C8.94589 5.6875 8.75 5.88339 8.75 6.125V11.8125C8.75 12.0541 8.94586 12.25 9.1875 12.25Z" fill="#636363"/>
<path d="M4.8125 12.25C5.05411 12.25 5.25 12.0541 5.25 11.8125V6.125C5.25 5.88339 5.05411 5.6875 4.8125 5.6875C4.57089 5.6875 4.375 5.88339 4.375 6.125V11.8125C4.375 12.0541 4.57086 12.25 4.8125 12.25Z" fill="#636363"/>
</svg>
