<svg width="21" height="21" viewBox="0 0 21 21" fill="none" xmlns="http://www.w3.org/2000/svg">
<path d="M20.9902 7.55595C20.9109 6.07585 20.2843 4.68603 19.2256 3.64252C18.1512 2.58334 16.7479 2 15.2746 2C13.0684 2 11.5063 3.70409 10.6672 4.61965C10.6194 4.67171 10.5681 4.72765 10.518 4.78173C10.4912 4.75123 10.4645 4.72083 10.439 4.69185C9.67196 3.81807 8.07569 2 5.72568 2C4.2524 2 2.84928 2.58334 1.77477 3.64252C0.716007 4.68603 0.0893768 6.07585 0.010195 7.55595C-0.0684813 9.0273 0.30561 10.3041 1.22285 11.6958C2.04491 12.9434 4.18569 14.916 5.76906 16.2261C7.3965 17.5726 9.54005 19.1778 10.5092 19.1778C11.4935 19.1778 13.6296 17.5759 15.248 16.2323C16.819 14.9278 18.948 12.9569 19.7777 11.6953C20.3951 10.7566 21.0909 9.43769 20.9902 7.55595ZM18.7221 11.001C18.1192 11.918 16.4199 13.6119 14.4934 15.2165C12.1964 17.1298 10.8364 17.884 10.5102 17.9139C10.1845 17.88 8.82118 17.1183 6.51295 15.2015C4.57519 13.5922 2.87329 11.9039 2.2779 11.0005C1.51886 9.84885 1.20862 8.80736 1.27188 7.62334C1.40051 5.21933 3.3985 3.26346 5.72559 3.26346C7.50357 3.26346 8.79541 4.73489 9.48951 5.52527C9.89754 5.99009 10.1224 6.24608 10.5003 6.24608C10.8904 6.24608 11.1419 5.97155 11.5987 5.4733C12.3563 4.6467 13.6244 3.26346 15.2746 3.26346C17.6019 3.26346 19.5997 5.21933 19.7285 7.62334C19.7925 8.82076 19.4915 9.83099 18.7221 11.001Z" fill="#A4A4A4"/>
</svg>
