<svg width="27" height="27" viewBox="0 0 27 27" fill="none" xmlns="http://www.w3.org/2000/svg">
<rect width="27" height="27" rx="4" fill="#D1152E"/>
<path d="M8.40443 16.6962H18.5979C18.7025 16.6162 18.7699 16.4904 18.7699 16.3492V15.5843C18.7699 15.3542 18.5853 15.1479 18.3336 15.1479H17.2359L17.2352 15.1487C16.9887 15.4339 16.6191 15.5804 16.2521 15.5804C15.8849 15.5804 15.5154 15.4339 15.2686 15.1487C15.2684 15.1484 15.2682 15.1482 15.2679 15.1479H13.8517C13.852 15.1482 13.852 15.1484 13.8517 15.1487C13.7657 15.8673 13.1718 16.2425 12.5849 16.2425C11.9972 16.2425 11.4031 15.8673 11.3169 15.1487C11.3166 15.1484 11.3166 15.1482 11.3169 15.1479C8.60364 15.1479 8.64634 15.1484 8.64634 15.1484C8.41601 15.1602 8.23242 15.351 8.23242 15.5843V16.3492C8.2324 16.4904 8.29988 16.6162 8.40443 16.6962Z" fill="white"/>
<path d="M8.66875 14.4257H11.306V14.425V13.7456C11.132 13.8231 10.9412 13.8624 10.7511 13.8624C10.1436 13.8624 9.57691 13.4722 9.48551 12.7881H8.66875C8.42805 12.7881 8.23242 12.9837 8.23242 13.2242V13.9894C8.2324 14.2206 8.4185 14.4257 8.66875 14.4257Z" fill="white"/>
<path d="M14.9723 12.8345V14.4259H13.8613V12.8345C14.0314 12.9082 14.2206 12.9472 14.4167 12.9472C14.607 12.9472 14.7981 12.9094 14.9723 12.8345Z" fill="white"/>
<path d="M18.77 13.9894V13.2242C18.77 12.9837 18.5744 12.7881 18.3337 12.7881H17.5302V14.3035C17.5302 14.345 17.5285 14.3855 17.5257 14.425C17.5257 14.4253 17.5257 14.4255 17.5254 14.4257H18.3337C18.575 14.4257 18.77 14.2293 18.77 13.9894Z" fill="white"/>
<path d="M8.66875 12.0653H9.47225V10.4277H8.66875C8.42805 10.4277 8.23242 10.6234 8.23242 10.8641V11.629C8.2324 11.8695 8.42805 12.0653 8.66875 12.0653Z" fill="white"/>
<path d="M18.7691 11.629V10.8641C18.7691 10.6234 18.5735 10.4277 18.3328 10.4277H17.5293V12.0653H18.3328C18.5734 12.0653 18.7691 11.8694 18.7691 11.629Z" fill="white"/>
<path d="M7.80163 17.4189C7.64062 17.4189 7.52492 17.5738 7.5706 17.7283L7.90028 18.8429C7.95475 19.027 8.12675 19.1554 8.31856 19.1554H18.6826C18.8743 19.1554 19.0464 19.027 19.1009 18.8429L19.4305 17.7283C19.4762 17.5738 19.3605 17.4189 19.1995 17.4189H7.80163Z" fill="white"/>
<path d="M16.0828 9.62305C16.482 9.62305 16.8056 9.94665 16.8056 10.3458V14.3037C16.8056 14.6737 16.5498 14.8576 16.2505 14.8576C15.937 14.8576 15.6946 14.6602 15.6946 14.3037V11.0583C15.6946 10.8637 15.5449 10.6962 15.3504 10.6872C15.1429 10.6776 14.9719 10.843 14.9719 11.0482V11.7161C14.9719 12.0577 14.7174 12.2244 14.4162 12.2244C14.1134 12.2244 13.8609 12.0553 13.8609 11.7161C13.8609 11.5163 13.699 11.3546 13.4995 11.3546C13.3 11.3546 13.1381 11.5163 13.1381 11.7161V14.9658C13.1381 15.3286 12.8933 15.5197 12.5832 15.5197C12.2707 15.5197 12.0271 15.3271 12.0271 14.9658V11.1002C12.0271 10.8951 11.8562 10.7296 11.6486 10.7392C11.4541 10.7482 11.3043 10.9157 11.3043 11.1104V12.586C11.3043 12.953 11.0545 13.14 10.7494 13.1397C10.4451 13.1397 10.1934 12.9535 10.1934 12.5858V10.3458C10.1934 9.94665 10.517 9.62305 10.9161 9.62305H16.0828Z" fill="white"/>
<path d="M14.5181 8.90017H12.4812C12.4593 8.33103 12.9162 7.84448 13.4996 7.84448C14.0789 7.84448 14.5401 8.32679 14.5181 8.90017Z" fill="white"/>
</svg>
