<svg width="30" height="27" viewBox="0 0 30 27" fill="none" xmlns="http://www.w3.org/2000/svg">
<rect width="30" height="27" rx="4" fill="#D1152E"/>
<path d="M12.7904 16.5807C12.7903 16.5808 12.7902 16.5807 12.7902 16.5807V16.5807C12.7899 16.5809 12.7897 16.5805 12.7897 16.5805V16.5805C12.6542 16.5402 11.904 15.9707 10.7148 16.2521L11.7334 19.1959C11.7837 19.3413 11.9315 19.4401 12.0985 19.4401H13.1675V19.44H13.1677C12.9226 17.5836 13.005 18.2079 12.7904 16.5807Z" fill="white"/>
<path d="M16.8996 14.1626C16.8996 14.1626 16.8999 14.1626 16.8999 14.1624C17.5399 13.8406 18.2311 13.734 18.919 13.8225C18.6193 12.2949 17.4678 11.3089 16.1572 10.9267C15.5181 11.4681 14.52 11.4089 13.9676 10.8486C12.5325 11.1582 11.2193 12.1757 10.8965 13.8225C11.5726 13.7352 12.2667 13.8355 12.9161 14.1624C14.1798 13.5634 15.6663 13.5754 16.8996 14.1626ZM16.1191 11.8789L16.2608 11.7499C16.4101 11.6134 16.6525 11.6134 16.8021 11.7499C16.9517 11.8864 16.9517 12.1074 16.8021 12.2439L16.6605 12.3732C16.5105 12.5097 16.2687 12.5095 16.1191 12.373C15.9696 12.2367 15.9696 12.0154 16.1191 11.8789ZM14.3019 12.6495L14.3509 12.4722C14.4027 12.2851 14.6107 12.1717 14.8159 12.219C15.0209 12.266 15.1452 12.4561 15.0936 12.6432L15.0447 12.8202C14.9925 13.0077 14.7849 13.1208 14.5796 13.0736C14.3746 13.0266 14.2504 12.8365 14.3019 12.6495ZM12.9885 12.3084L12.8469 12.1791C12.6976 12.0429 12.6976 11.8216 12.8469 11.6851C12.9964 11.5486 13.2389 11.5486 13.3882 11.6851L13.5299 11.8144C13.6792 11.9507 13.6794 12.172 13.5299 12.3084C13.3812 12.4447 13.1376 12.4449 12.9885 12.3084Z" fill="white"/>
<path d="M14.5965 10.4323C14.8823 10.6567 15.3049 10.6614 15.5967 10.4465C15.9603 10.1779 15.9854 9.6839 15.659 9.38597C15.3529 9.10704 14.8571 9.1083 14.5529 9.38597C14.2328 9.67807 14.2501 10.1605 14.5965 10.4323Z" fill="white"/>
<path d="M19.5547 14.9437C19.5955 14.8259 19.5286 14.6989 19.4018 14.6556C18.2247 14.2538 17.4167 14.7184 17.2673 14.7532L17.2665 14.7535C17.2665 14.7535 17.2678 14.7426 17.1367 15.7382C17.137 15.7379 17.1372 15.7377 17.1375 15.7377C17.8268 15.4538 18.5831 15.4007 19.333 15.5847C19.3391 15.5667 19.4704 15.1876 19.5547 14.9437Z" fill="white"/>
<path d="M16.4751 9.23226C16.9254 8.93013 17.2814 8.51363 17.4902 8.04009C17.5693 7.86119 17.4741 7.6576 17.2781 7.58539C17.0818 7.51341 16.859 7.60006 16.7799 7.7792C16.6142 8.15516 16.3238 8.48314 15.957 8.71093C16.1729 8.84147 16.3517 9.01853 16.4751 9.23226Z" fill="white"/>
<path d="M12.6785 15.7377C12.6788 15.7377 12.6788 15.7377 12.679 15.7379L12.679 15.7378C12.6791 15.7378 12.679 15.7378 12.6791 15.7379C12.5393 14.6787 12.5524 14.7789 12.5495 14.7539C12.2801 14.672 11.5318 14.2733 10.4139 14.6562C10.2876 14.6994 10.2213 14.8263 10.2619 14.9437C10.3052 15.0688 10.3743 15.2684 10.4838 15.5851C11.2332 15.4011 11.9891 15.4538 12.6785 15.7377Z" fill="white"/>
<path d="M16.4952 14.7589C15.528 14.3163 14.3564 14.2861 13.3205 14.7589V14.759C13.3204 14.759 13.3204 14.759 13.3203 14.759C13.3204 14.7593 13.4357 15.6377 13.4357 15.6377C13.4358 15.6375 13.4358 15.6376 13.4358 15.6375V15.6376C13.436 15.6374 13.4359 15.6375 13.436 15.6374H13.4362C14.2883 15.342 15.3787 15.3066 16.3787 15.6374C16.3789 15.6374 16.3792 15.6377 16.3795 15.6377C16.3795 15.6361 16.4953 14.7622 16.4953 14.759C16.4953 14.759 16.4953 14.759 16.4952 14.759V14.7589Z" fill="white"/>
<path d="M17.0264 16.5808V16.5808C17.026 16.5808 17.0257 16.5808 17.0254 16.581L16.6484 19.4398H16.6486V19.4399H17.7182C17.8852 19.4399 18.0329 19.3411 18.0832 19.1958L19.1021 16.2517C17.9143 15.9712 17.1694 16.538 17.0264 16.5808Z" fill="white"/>
<path d="M16.2863 16.3542H16.286C16.2858 16.3539 16.2855 16.3539 16.2854 16.3539V16.3538C16.2853 16.3538 16.2853 16.3538 16.2852 16.3538V16.3537C16.2851 16.3536 16.2848 16.3536 16.2846 16.3536C15.6687 16.1616 14.757 15.8785 13.5319 16.3535V16.3535C13.5318 16.3535 13.5318 16.3535 13.5318 16.3536V16.3537C13.5316 16.3537 13.5316 16.3537 13.5314 16.3537V16.3538C13.5313 16.3538 13.5313 16.3538 13.5312 16.3538C13.7948 18.3533 13.7079 17.6935 13.9379 19.4399H13.9381V19.44H15.8793V19.4399H15.8795C15.8804 19.4323 16.2864 16.3543 16.2864 16.3543H16.2863V16.3542Z" fill="white"/>
</svg>
