<svg width="27" height="27" viewBox="0 0 27 27" fill="none" xmlns="http://www.w3.org/2000/svg">
<rect width="27" height="27" rx="4" fill="#D1152E"/>
<path d="M10.4414 10.0779C10.308 10.2132 10.308 10.4324 10.4414 10.5677C10.5081 10.6353 10.5955 10.6691 10.6829 10.6691C10.7703 10.6691 10.8577 10.6353 10.9244 10.5677C11.3801 10.1055 11.38 9.35356 10.9244 8.89143C10.735 8.69935 10.735 8.38681 10.9244 8.19475C11.0577 8.05948 11.0577 7.84021 10.9244 7.70497C10.791 7.56968 10.5748 7.56972 10.4414 7.70497C9.98567 8.16712 9.9857 8.91908 10.4414 9.38121C10.6308 9.57329 10.6308 9.88581 10.4414 10.0779Z" fill="white"/>
<path d="M12.291 10.0779C12.1576 10.2131 12.1576 10.4324 12.291 10.5677C12.3577 10.6353 12.4451 10.6691 12.5325 10.6691C12.6199 10.6691 12.7073 10.6353 12.774 10.5677C13.2297 10.1055 13.2297 9.35355 12.774 8.89141C12.5845 8.69933 12.5845 8.38679 12.774 8.19473C12.9074 8.05948 12.9074 7.84019 12.774 7.70495C12.6406 7.5697 12.4243 7.5697 12.291 7.70495C11.8353 8.16708 11.8353 8.91906 12.291 9.38119C12.4804 9.57328 12.4804 9.88579 12.291 10.0779Z" fill="white"/>
<path d="M14.1406 10.0779C14.0073 10.2131 14.0073 10.4324 14.1406 10.5677C14.2073 10.6353 14.2947 10.6691 14.3821 10.6691C14.4696 10.6691 14.5569 10.6353 14.6236 10.5677C15.0794 10.1055 15.0794 9.35355 14.6236 8.89141C14.4342 8.69933 14.4342 8.38679 14.6236 8.19473C14.757 8.05948 14.757 7.84019 14.6236 7.70495C14.4902 7.5697 14.274 7.5697 14.1406 7.70495C13.6849 8.16708 13.6849 8.91906 14.1406 9.38119C14.33 9.57328 14.33 9.88579 14.1406 10.0779Z" fill="white"/>
<path d="M16.8623 11.9985L17.6986 10.7567V10.7567L17.7777 10.8114C17.9335 10.9193 18.146 10.8786 18.2524 10.7207C18.3587 10.5628 18.3187 10.3473 18.1629 10.2394C18.052 10.1626 17.7711 9.96811 17.4407 9.73929C17.285 9.63146 17.0725 9.67206 16.9661 9.82999C16.8597 9.98793 16.8997 10.2034 17.0555 10.3113L17.1346 10.3661L16.2988 11.6073C16.5048 11.6913 16.7016 11.8238 16.8623 11.9985Z" fill="white"/>
<path d="M15.9262 13.4297C16.1452 13.3925 16.3676 13.3976 16.5803 13.4454C16.8137 12.5328 15.9459 11.8628 15.1543 12.3429C15.4842 12.6502 15.7486 13.0194 15.9262 13.4297Z" fill="white"/>
<path d="M15.2845 13.6699C14.863 12.7363 13.8615 12.0879 12.7081 12.0879C10.3626 12.0879 8.39109 13.7627 8.19141 15.9122H14.4947C14.1726 15.1147 14.5034 14.1452 15.2845 13.6699Z" fill="white"/>
<path d="M19.1758 12.6638C19.1064 12.5935 18.6107 12.0907 18.5575 12.0367C18.4241 11.9015 18.2079 11.9015 18.0745 12.0367C17.9411 12.172 17.9411 12.3913 18.0745 12.5265L18.1422 12.5952L17.0938 13.6584C17.2901 13.7853 17.4545 13.9527 17.5765 14.1483L18.6251 13.0849L18.6929 13.1535C18.8263 13.2888 19.0425 13.2888 19.1759 13.1535C19.3093 13.0183 19.3093 12.799 19.1758 12.6638Z" fill="white"/>
<path d="M15.2901 15.9123H16.745C17.2139 15.4916 17.2847 14.7776 16.8789 14.366C16.8762 14.3632 16.8736 14.3607 16.8709 14.3582C15.9408 13.4383 14.4515 14.9712 15.2901 15.9123Z" fill="white"/>
<path d="M9.74733 19.0987C9.77131 19.2694 9.91543 19.3961 10.0854 19.3961H16.6483C16.8183 19.3961 16.9624 19.2694 16.9864 19.0987L17.0618 18.5615H9.67188L9.74733 19.0987Z" fill="white"/>
<path d="M18.9444 16.605H7.78823C7.66249 16.605 7.56055 16.7083 7.56055 16.8359V17.4325C7.56055 17.6735 7.7532 17.8688 7.99086 17.8688H18.7418C18.9795 17.8688 19.1721 17.6735 19.1721 17.4325V16.8359C19.1721 16.7083 19.0702 16.605 18.9444 16.605Z" fill="white"/>
</svg>
