<svg width="27" height="27" viewBox="0 0 27 27" fill="none" xmlns="http://www.w3.org/2000/svg">
<rect width="27" height="27" rx="4" fill="#D1152E"/>
<path d="M13.53 9.07435C13.7636 9.89935 13.3081 10.723 12.5615 11.0047C11.6835 11.3361 10.7004 10.8398 10.4566 9.92023L9.35484 10.2234C9.16373 14.1849 12.8177 17.836 16.7764 17.645L17.7659 14.0493C16.7562 13.7764 16.1134 12.7347 16.3742 11.6809C16.636 10.623 17.7279 9.95899 18.8087 10.2598L19.4268 8.01374C19.5006 7.74565 19.2542 7.49929 18.9861 7.57306L13.53 9.07435ZM14.4079 10.4378C14.504 10.2646 14.7222 10.2019 14.8951 10.2978L15.3886 10.5714C15.5618 10.6672 15.6245 10.8854 15.5284 11.0586C15.4336 11.2295 15.2173 11.2952 15.0411 11.1984L14.5477 10.925C14.3747 10.829 14.3121 10.6108 14.4079 10.4378ZM11.7692 12.6187H11.205C11.0072 12.6187 10.8466 12.4584 10.8466 12.2602C10.8466 12.0624 11.0072 11.9018 11.205 11.9018H11.7692C11.967 11.9018 12.1276 12.0624 12.1276 12.2602C12.1276 12.4584 11.967 12.6187 11.7692 12.6187ZM12.6067 13.6667C12.6067 12.9453 13.1938 12.3585 13.9152 12.3585C14.6364 12.3585 15.2232 12.9453 15.2232 13.6667C15.2232 14.3881 14.6364 14.975 13.9152 14.975C13.1938 14.975 12.6067 14.3881 12.6067 13.6667ZM15.6411 16.4639L15.0772 16.4462C14.8794 16.4402 14.7241 16.2749 14.73 16.077C14.7363 15.8789 14.9013 15.7234 15.0995 15.7299L15.6634 15.7473C15.8612 15.7535 16.0165 15.9189 16.0106 16.1167C16.0047 16.2992 15.8607 16.4639 15.6411 16.4639ZM17.8875 9.03633L17.5781 9.50827C17.4697 9.67342 17.248 9.72041 17.082 9.61151C16.9164 9.50303 16.8701 9.2808 16.9786 9.1152L17.288 8.64352C17.3965 8.47792 17.6187 8.43157 17.7843 8.54005C17.9499 8.64876 17.996 8.87076 17.8875 9.03633Z" fill="white"/>
<path d="M16.8591 18.3587C12.4398 18.6035 8.39753 14.5507 8.64182 10.1414C8.65076 9.97431 8.50626 9.8372 8.33478 9.87016C8.11353 9.91477 8.23976 9.88931 7.82056 9.97387C7.71231 9.99586 7.6301 10.0831 7.6165 10.1911C6.98467 15.1968 11.8081 20.0152 16.8094 19.384C16.9174 19.3704 17.0046 19.2882 17.0266 19.18C17.1109 18.7623 17.0856 18.8876 17.1303 18.6657C17.164 18.4983 17.0288 18.3496 16.8591 18.3587Z" fill="white"/>
<path d="M12.2976 10.3375C12.7163 10.1853 12.9733 9.72493 12.8392 9.2644L11.1465 9.73036C11.2725 10.2265 11.8061 10.5161 12.2976 10.3375Z" fill="white"/>
<path d="M17.059 11.9016C16.926 12.5502 17.3196 13.1886 17.956 13.3585L18.6185 10.9508H18.6183C17.9135 10.7534 17.2023 11.2028 17.059 11.9016Z" fill="white"/>
<path d="M13.9159 13.0754C13.5897 13.0754 13.3242 13.3406 13.3242 13.6668C13.3242 13.993 13.5897 14.2583 13.9159 14.2583C14.2418 14.2583 14.507 13.993 14.507 13.6668C14.507 13.3407 14.2418 13.0754 13.9159 13.0754Z" fill="white"/>
</svg>
