<svg width="27" height="27" viewBox="0 0 27 27" fill="none" xmlns="http://www.w3.org/2000/svg">
<rect width="27" height="27" rx="4" fill="#D1152E"/>
<path d="M9.36118 12.6109H17.6448C17.8697 12.0209 17.6626 11.337 17.1081 10.9789C16.9919 10.9037 16.9308 10.7669 16.9527 10.63C17.092 9.75983 16.387 8.98942 15.5087 9.05203C15.3238 9.06485 15.161 8.9316 15.1374 8.74805C15.0503 8.07065 14.4689 7.55981 13.7852 7.55981C12.9754 7.55981 12.3445 8.25715 12.4286 9.06718C12.4571 9.34 12.1726 9.53909 11.9252 9.41589C10.9874 8.94821 9.88773 9.67534 9.95728 10.7285C9.96497 10.8466 9.91232 10.9607 9.81751 11.0316C9.27942 11.4331 9.15603 12.0874 9.36118 12.6109ZM15.6539 11.4113L15.8085 11.2564C15.945 11.1201 16.1663 11.1199 16.3026 11.2564C16.4391 11.3928 16.4391 11.6141 16.3026 11.7506L16.1479 11.9054C16.012 12.0413 15.7904 12.0421 15.6536 11.9054C15.5174 11.7688 15.5174 11.5478 15.6539 11.4113ZM14.4132 10.1238C14.4132 9.93092 14.5695 9.77439 14.7626 9.77439C14.9555 9.77439 15.112 9.93092 15.112 10.1238V10.3428C15.112 10.5356 14.9555 10.6922 14.7626 10.6922C14.5695 10.6922 14.4132 10.5356 14.4132 10.3428V10.1238ZM11.2149 10.8012C11.3512 10.6647 11.5725 10.6647 11.709 10.8012L11.8639 10.9559C12.0002 11.0924 12.0002 11.3137 11.8637 11.4502C11.7281 11.5862 11.5062 11.5868 11.3696 11.4502L11.2149 11.2953C11.0784 11.1588 11.0784 10.9377 11.2149 10.8012Z" fill="white"/>
<path d="M11.4512 18.8401V19.207C11.4512 19.3356 11.5554 19.4399 11.6841 19.4399H15.318C15.4466 19.4399 15.5509 19.3356 15.5509 19.207V18.8401C15.3844 18.8507 11.6075 18.85 11.4512 18.8401Z" fill="white"/>
<path d="M8.97656 15.4635C8.97656 16.9454 10.1826 18.1477 11.6607 18.1477H15.3408C16.8188 18.1477 18.0249 16.9455 18.0249 15.4635V14.7302H8.97656V15.4635Z" fill="white"/>
<path d="M8.97656 13.5428V14.0315H18.0249V13.5428C18.0249 13.4141 17.9206 13.3098 17.792 13.3098H9.2095C9.08085 13.3098 8.97656 13.4141 8.97656 13.5428Z" fill="white"/>
</svg>
