<svg width="27" height="27" viewBox="0 0 27 27" fill="none" xmlns="http://www.w3.org/2000/svg">
<rect width="27" height="27" rx="4" fill="#D1152E"/>
<path d="M8.81888 18.9348H9.78232C9.91098 18.9348 10.0153 18.8305 10.0153 18.7018V17.8672H8.58594V18.7018C8.58594 18.8305 8.69022 18.9348 8.81888 18.9348Z" fill="white"/>
<path d="M17.2193 18.9348H18.1827C18.3114 18.9348 18.4157 18.8305 18.4157 18.7018V17.8672H16.9863V18.7018C16.9863 18.8305 17.0906 18.9348 17.2193 18.9348Z" fill="white"/>
<path d="M19.2251 15.6111H7.77602C7.65722 15.6111 7.56055 15.7077 7.56055 15.8265V16.9528C7.56055 17.0716 7.65722 17.1683 7.77602 17.1683H19.2251C19.3439 17.1683 19.4405 17.0716 19.4405 16.9528V15.8265C19.4405 15.7077 19.3439 15.6111 19.2251 15.6111Z" fill="white"/>
<path d="M8.62846 12.2805C8.52247 12.5172 8.4668 12.7758 8.4668 13.0429C8.4668 14.0737 9.30515 14.912 10.3359 14.912H11.1747V12.3348C10.3491 12.3606 8.93564 12.3485 8.62846 12.2805ZM9.20382 13.4576C9.20382 13.2645 9.36036 13.1082 9.55323 13.1082C9.74611 13.1082 9.90265 13.2645 9.90265 13.4576V13.5885C9.90265 13.7816 9.74611 13.9379 9.55323 13.9379C9.36036 13.9379 9.20382 13.7816 9.20382 13.5885V13.4576Z" fill="white"/>
<path d="M16.9912 13.0427C16.9912 12.4063 16.6786 11.8486 16.1887 11.5076C15.5433 11.7084 14.9527 11.8672 14.2832 11.9998V14.9118H15.1225C16.1534 14.9118 16.9912 14.0783 16.9912 13.0427ZM15.6 12.4265C15.6 12.2334 15.7566 12.0771 15.9495 12.0771C16.1423 12.0771 16.2989 12.2334 16.2989 12.4265V12.5574C16.2989 12.7505 16.1423 12.9069 15.9495 12.9069C15.7566 12.9069 15.6 12.7505 15.6 12.5574V12.4265ZM14.9886 13.8503V13.7194C14.9886 13.5263 15.1451 13.37 15.338 13.37C15.5309 13.37 15.6874 13.5263 15.6874 13.7194V13.8503C15.6874 14.0434 15.5309 14.1997 15.338 14.1997C15.1451 14.1997 14.9886 14.0434 14.9886 13.8503Z" fill="white"/>
<path d="M8.95385 11.6202C9.13198 11.6269 9.25891 11.6314 9.44209 11.6362C9.3683 10.9741 9.44428 10.2658 9.60701 9.62874C9.4365 9.61593 9.2583 9.60242 9.07148 9.5882C8.52747 9.54861 8.05248 9.94025 7.98481 10.475C7.91023 11.0626 8.35009 11.5951 8.95385 11.6202Z" fill="white"/>
<path d="M10.1459 11.6484C10.5032 11.6502 10.8447 11.646 11.1741 11.6353C11.1741 11.4318 11.1741 10.0584 11.1741 9.73963C10.9118 9.72309 10.6281 9.70376 10.3155 9.6814C10.1429 10.3009 10.0592 11.0127 10.1459 11.6484Z" fill="white"/>
<path d="M15.2553 11.054C15.136 10.6048 15.0654 10.1314 15.0261 9.66455C14.7754 9.70345 14.5348 9.7335 14.2832 9.75679V11.287C14.6052 11.2205 14.93 11.143 15.2553 11.054Z" fill="white"/>
<path d="M15.9243 10.8579C16.2464 10.7581 16.5756 10.6489 16.8954 10.5411C16.6663 10.1758 16.5642 9.75472 16.5786 9.35864C16.2562 9.42946 15.9736 9.48979 15.7148 9.54104C15.7489 9.97112 15.8134 10.4371 15.9243 10.8579Z" fill="white"/>
<path d="M18.4329 8.07243C17.8246 8.2224 17.3722 8.55269 17.2871 9.26393C17.9601 9.17464 18.4868 8.93527 18.7034 8.38668C18.773 8.21036 18.6169 8.02706 18.4329 8.07243Z" fill="white"/>
<path d="M17.3809 9.95681C17.6482 10.6163 18.167 10.819 18.7998 10.8029C18.9896 10.7981 19.0924 10.5792 18.9776 10.4279C18.6244 9.96242 18.0505 9.86668 17.3809 9.95681Z" fill="white"/>
<path d="M13.3443 9.69407C12.8596 9.70418 12.5289 9.69043 12.1154 9.67378C11.9832 9.66844 11.873 9.7742 11.873 9.90653V14.9113H13.5819V9.92696C13.5819 9.79649 13.4747 9.69134 13.3443 9.69407Z" fill="white"/>
</svg>
