<svg width="27" height="27" viewBox="0 0 27 27" fill="none" xmlns="http://www.w3.org/2000/svg">
<rect width="27" height="27" rx="4" fill="#D1152E"/>
<path d="M18.9346 11.1683C18.7966 11.0302 18.5727 11.0302 18.4346 11.1683L16.3301 13.2731C16.5175 13.4112 16.689 13.582 16.8296 13.773L18.9346 11.6683C19.0725 11.5302 19.0725 11.3063 18.9346 11.1683Z" fill="white"/>
<path d="M13.7588 14.0042L11.147 16.6161C10.5007 17.2624 10.5003 18.3085 11.147 18.9551C11.7932 19.6014 12.8396 19.6016 13.4861 18.9551L16.098 16.3433C16.7429 15.6983 16.7429 14.6491 16.098 14.0042C15.4475 13.3547 14.3993 13.3638 13.7588 14.0042ZM11.9176 17.047C11.7798 16.909 11.7798 16.6851 11.9176 16.5471L12.0435 16.4215C12.1815 16.2834 12.4054 16.2834 12.5432 16.4215C12.6813 16.5596 12.6813 16.7832 12.5432 16.9213L12.4176 17.047C12.2803 17.1844 12.0562 17.1855 11.9176 17.047ZM12.9772 18.58L12.8514 18.7058C12.7134 18.8438 12.4895 18.8436 12.3516 18.7058C12.2136 18.5677 12.2136 18.3439 12.3516 18.206L12.4773 18.0802C12.6153 17.9421 12.8392 17.9421 12.9772 18.0802C13.1153 18.2184 13.1153 18.4422 12.9772 18.58ZM13.7258 16.155L13.6002 16.2808C13.4627 16.4183 13.2385 16.4192 13.1002 16.2808C12.9622 16.1428 12.9622 15.9191 13.1002 15.7811L13.226 15.6552C13.3641 15.5172 13.5877 15.5172 13.7258 15.6552C13.8639 15.7933 13.8639 16.0172 13.7258 16.155ZM15.7481 16.0363L15.6225 16.1621C15.4841 16.3 15.2609 16.2999 15.1225 16.1621C14.9847 16.024 14.9847 15.8002 15.1225 15.6621L15.2484 15.5365C15.3864 15.3984 15.61 15.3984 15.7481 15.5365C15.8862 15.6744 15.8862 15.8982 15.7481 16.0363Z" fill="white"/>
<path d="M9.98821 13.1265L8.06626 15.0482C7.92843 15.1863 7.92843 15.4101 8.06626 15.5482C8.20465 15.6861 8.42788 15.6861 8.56625 15.5482L10.4877 13.6265C10.2939 13.4834 10.1257 13.3134 9.98821 13.1265Z" fill="white"/>
<path d="M13.0128 12.8953L14.9839 10.9244C15.0261 10.8822 15.03 10.8146 14.9919 10.7687C14.6203 10.3207 14.5457 9.69645 14.7977 9.17419C14.8161 9.13625 14.8123 9.09148 14.7881 9.057C14.5139 8.66638 14.4457 8.16747 14.6021 7.71747C14.6283 7.64198 14.5749 7.56362 14.4951 7.56096C14.0523 7.54626 13.6114 7.71144 13.2892 8.03357L10.7202 10.6025C10.0881 11.2347 10.0881 12.2632 10.7202 12.8954C11.3529 13.5286 12.3794 13.5292 13.0128 12.8953ZM12.1294 10.0639C12.2006 9.88201 12.4058 9.79249 12.5875 9.86387L13.9725 10.407C14.1544 10.4784 14.2439 10.6834 14.1725 10.865C14.1008 11.0481 13.8943 11.136 13.7145 11.065L12.3295 10.5219C12.1476 10.4505 12.0581 10.2456 12.1294 10.0639ZM10.9278 11.2655C10.999 11.0839 11.2042 10.9944 11.3858 11.0655L12.7708 11.6089C12.9525 11.68 13.042 11.885 12.9708 12.0669C12.899 12.2499 12.6924 12.3375 12.5128 12.2667L11.1276 11.7236C10.9459 11.6524 10.8564 11.4472 10.9278 11.2655Z" fill="white"/>
</svg>
